<svg width="89" height="88" viewBox="0 0 89 88" fill="none" xmlns="http://www.w3.org/2000/svg">
<path opacity="0.4" fill-rule="evenodd" clip-rule="evenodd" d="M53.3891 17.5468C53.3891 16.6575 53.4815 15.7919 53.6359 14.9468C53.8104 13.9906 53.1142 13.0625 52.1421 13.0625H27.759C16.6306 13.0625 9.1543 20.8982 9.1543 32.5692V60.3588C9.1543 72.0078 16.6306 79.8325 27.759 79.8325H57.3161C68.4408 79.8325 75.9135 72.0078 75.9135 60.3588V35.2819C75.9135 34.2592 74.8905 33.5503 73.8979 33.7955C72.6842 34.0951 71.4218 34.2668 70.1161 34.2668C60.8908 34.2668 53.3891 26.7648 53.3891 17.5468Z" fill="#F0540B"/>
<path d="M47.8868 57.6572L57.9555 44.6405C58.8831 43.4379 58.6631 41.7109 57.4641 40.7832C56.2615 39.8445 54.5345 40.0755 53.6031 41.2745L45.2358 52.0949L35.6806 44.5745C35.1049 44.1162 34.3606 43.9219 33.6419 44.0062C32.9086 44.0979 32.2486 44.4755 31.8012 45.0585L21.5126 58.4419C20.5886 59.6445 20.8122 61.3679 22.0186 62.2955C22.5172 62.6805 23.1076 62.8675 23.6906 62.8675C24.5156 62.8675 25.3332 62.4972 25.8722 61.7932L34.4669 50.6172L44.0111 58.1339C44.5868 58.5922 45.3091 58.7939 46.0498 58.7022C46.7795 58.6142 47.4395 58.2365 47.8868 57.6572Z" fill="#F0540B"/>
<path fill-rule="evenodd" clip-rule="evenodd" d="M70.1147 8.16406C64.9264 8.16406 60.7207 12.3881 60.7207 17.5507C60.7207 22.7611 64.9264 26.9337 70.1147 26.9337C75.303 26.9337 79.5087 22.7611 79.5087 17.5507C79.5087 12.3881 75.303 8.16406 70.1147 8.16406Z" fill="#F0540B"/>
</svg>
