<svg width="88" height="88" viewBox="0 0 88 88" fill="none" xmlns="http://www.w3.org/2000/svg">
<path opacity="0.4" fill-rule="evenodd" clip-rule="evenodd" d="M42.7835 53.6448H25.4438C23.9221 53.6448 22.6938 52.4128 22.6938 50.8948C22.6938 49.3768 23.9221 48.1448 25.4438 48.1448H42.7835C44.3015 48.1448 45.5335 49.3768 45.5335 50.8948C45.5335 52.4128 44.3015 53.6448 42.7835 53.6448ZM25.4401 33.0087H34.4931C36.0111 33.0087 37.2431 34.2407 37.2431 35.7587C37.2431 37.2768 36.0111 38.5088 34.4931 38.5088H25.4401C23.9185 38.5088 22.6901 37.2768 22.6901 35.7587C22.6901 34.2407 23.9185 33.0087 25.4401 33.0087ZM54.9825 49.0102C58.0625 43.6605 64.9228 41.8162 70.2871 44.9035L73.1471 46.5572C73.2645 46.6232 73.3561 46.7148 73.4661 46.7882V33.3607C73.4661 32.4697 72.7585 31.7547 71.8748 31.7547H61.0141C54.5388 31.718 49.1965 26.3574 49.1965 19.8197V8.31003C49.1965 7.41903 48.4888 6.66736 47.5685 6.66736H28.6741C19.8668 6.66736 12.7168 13.92 12.7168 22.7824V61.3045C12.7168 70.5958 20.2188 78.1382 29.4185 78.1382H45.3098C45.1705 77.7202 45.0055 77.3132 44.9175 76.8768L44.4261 74.4238C43.7515 71.0065 44.3345 67.4608 46.0725 64.4358L54.9825 49.0102Z" fill="#F0540B"/>
<path fill-rule="evenodd" clip-rule="evenodd" d="M69.6355 57.6818L60.7328 73.1001C60.2121 74.0021 59.3798 74.6841 58.4008 75.0215L55.9258 75.7768L55.4345 73.3128C55.2328 72.2935 55.4088 71.2302 55.9295 70.3282L64.8321 54.9062C65.0411 54.5468 65.4225 54.3452 65.8075 54.3452C65.9981 54.3452 66.1925 54.3928 66.3648 54.4955L69.2248 56.1455C69.7601 56.4572 69.9435 57.1465 69.6355 57.6818ZM71.9748 51.3825L69.1111 49.7325C65.9615 47.9102 61.8988 48.9955 60.0728 52.1562L51.1628 67.5818C49.9785 69.6425 49.5788 72.0588 50.0408 74.3871L50.5321 76.8475C50.8401 78.4205 51.8191 79.7808 53.2088 80.5875C54.0631 81.0788 55.0275 81.3318 55.9918 81.3318C56.5931 81.3318 57.1945 81.2328 57.7775 81.0385L60.1645 80.2281C62.4121 79.4618 64.3078 77.9108 65.4958 75.8501L74.4021 60.4282C76.2208 57.2638 75.1318 53.2085 71.9748 51.3825Z" fill="#F0540B"/>
<path fill-rule="evenodd" clip-rule="evenodd" d="M42.7828 53.6434H25.4431C23.9215 53.6434 22.6931 52.4114 22.6931 50.8934C22.6931 49.3754 23.9215 48.1434 25.4431 48.1434H42.7828C44.3008 48.1434 45.5328 49.3754 45.5328 50.8934C45.5328 52.4114 44.3008 53.6434 42.7828 53.6434ZM25.4395 33.0072H34.4925C36.0105 33.0072 37.2425 34.2392 37.2425 35.7572C37.2425 37.2754 36.0105 38.5074 34.4925 38.5074H25.4395C23.9178 38.5074 22.6895 37.2754 22.6895 35.7572C22.6895 34.2392 23.9178 33.0072 25.4395 33.0072Z" fill="#F0540B"/>
<path fill-rule="evenodd" clip-rule="evenodd" d="M61.483 26.5327C63.9507 26.5584 67.379 26.5694 70.2867 26.5584C71.7753 26.5547 72.5307 24.7581 71.5003 23.6727C69.634 21.7147 67.0343 18.9831 64.4237 16.2404C61.802 13.4867 59.1693 10.7221 57.2553 8.71273C56.1957 7.60173 54.3477 8.36439 54.3477 9.90439V19.3241C54.3477 23.2767 57.5707 26.5327 61.483 26.5327Z" fill="#F0540B"/>
</svg>
