<svg width="89" height="88" viewBox="0 0 89 88" fill="none" xmlns="http://www.w3.org/2000/svg">
<path fill-rule="evenodd" clip-rule="evenodd" d="M53.9494 65.3891C53.5974 64.7731 52.9374 64.4577 52.2737 64.4834L52.2407 64.4797C52.1967 64.4834 36.7894 64.4797 36.7894 64.4797V64.5091C36.2541 64.5897 35.7591 64.8757 35.4658 65.3781L29.5038 73.2541C28.6201 74.8014 28.6238 76.6457 29.5148 78.1821C30.4094 79.7184 32.0081 80.6387 33.7974 80.6387H55.548C57.3154 80.6387 58.903 79.7257 59.7977 78.1931C60.6924 76.6641 60.7107 74.8307 59.838 73.2871L53.9494 65.3891Z" fill="#F0540B"/>
<path opacity="0.4" fill-rule="evenodd" clip-rule="evenodd" d="M79.4987 20.2284V40.3949C79.4987 40.8001 79.1705 41.1283 78.7654 41.1283H10.5654C10.1603 41.1283 9.83203 40.8001 9.83203 40.3949V20.2284C9.83203 13.1151 15.5887 7.3584 22.702 7.3584H66.6287C73.742 7.3584 79.4987 13.1151 79.4987 20.2284Z" fill="#F0540B"/>
<path fill-rule="evenodd" clip-rule="evenodd" d="M78.7654 46.6283C79.1705 46.6283 79.4987 46.9565 79.4987 47.3616V47.7283C79.4987 54.805 73.742 60.5616 66.6287 60.5616H22.702C15.5887 60.5616 9.83203 54.805 9.83203 47.7283V47.3616C9.83203 46.9565 10.1603 46.6283 10.5654 46.6283H78.7654Z" fill="#F0540B"/>
</svg>
