<svg width="141" height="39" viewBox="0 0 141 39" fill="none" xmlns="http://www.w3.org/2000/svg">
<g clip-path="url(#clip0_392_5289)">
<path d="M140.566 0.265137V7.98508H139.779C139.654 6.78586 139.479 5.78652 139.254 4.98704C139.029 4.16259 138.692 3.50051 138.243 3.00084C137.793 2.50117 137.218 2.1514 136.519 1.95153C135.819 1.75166 134.932 1.66422 133.858 1.6892H133.746C133.77 1.96402 133.783 2.28881 133.783 2.66356C133.783 3.01333 133.783 3.32563 133.783 3.60045V21.3263C133.783 22.2008 134.045 22.8878 134.57 23.3875C135.12 23.8872 135.769 24.162 136.519 24.2119V24.7741H124.789V24.2119C125.564 24.162 126.213 23.8872 126.738 23.3875C127.262 22.8878 127.524 22.2008 127.524 21.3263V9.55908L127.412 1.6892H127.375C126.301 1.66422 125.413 1.75166 124.714 1.95153C124.015 2.1514 123.452 2.50117 123.028 3.00084C122.603 3.47553 122.278 4.12511 122.053 4.94957C121.829 5.74904 121.654 6.76088 121.529 7.98508H120.629V0.265137H140.566Z" fill="black"/>
<path d="M118.653 0.264771V0.826899C117.853 0.876866 117.191 1.16418 116.667 1.68884C116.142 2.18851 115.88 2.87556 115.88 3.74999V21.326C115.88 22.2503 116.142 22.9499 116.667 23.4246C117.191 23.8993 117.853 24.1616 118.653 24.2116V24.7737H109.809L98.0039 5.28648H97.891V21.326C97.891 22.2004 98.1534 22.8874 98.6782 23.3871C99.2277 23.8868 99.89 24.1616 100.664 24.2116V24.7737H93.582V24.2116C94.3565 24.1616 95.0054 23.8868 95.5302 23.3871C96.0797 22.8874 96.3548 22.2004 96.3548 21.326V3.82494C96.3548 2.95051 96.0797 2.26346 95.5302 1.76379C95.0054 1.23914 94.3565 0.951817 93.582 0.901849L93.6568 0.189818L102.276 0.152344L114.231 20.1267H114.381V3.74999C114.381 2.87556 114.106 2.18851 113.556 1.68884C113.007 1.16418 112.357 0.876866 111.607 0.826899V0.264771H118.653Z" fill="black"/>
<path d="M91.2891 0.229004V0.82861C90.4892 0.878577 89.8276 1.1534 89.3028 1.65308C88.8034 2.15275 88.553 2.8398 88.553 3.71422V21.3277C88.553 22.2021 88.8034 22.8892 89.3028 23.3889C89.8276 23.8635 90.4892 24.1258 91.2891 24.1758V24.7754H79.9336V24.1758C80.6834 24.1258 81.3203 23.8635 81.8451 23.3889C82.3699 22.8892 82.6323 22.2021 82.6323 21.3277V3.71422C82.6323 2.8398 82.3699 2.15275 81.8451 1.65308C81.3203 1.1534 80.6834 0.878577 79.9336 0.82861V0.229004H91.2891Z" fill="black"/>
<path d="M76.6007 13.2697C76.7756 13.4196 76.9251 13.607 77.05 13.8318C77.2002 14.0317 77.3625 14.2566 77.5374 14.5064C77.737 14.9311 77.9119 15.4558 78.0622 16.0804C78.2117 16.68 78.2117 17.3671 78.0622 18.1415C77.8618 19.3157 77.4746 20.3276 76.9005 21.177C76.3256 22.0265 75.6132 22.7261 74.7639 23.2757C73.9394 23.8253 73.0027 24.2376 71.9531 24.5124C70.9043 24.7622 69.8048 24.8871 68.6556 24.8871C63.3477 24.8871 61.6337 22.751 59.6989 22.751C59.2492 22.751 58.862 22.8884 58.5372 23.1632C58.2124 23.438 58.025 23.9627 57.9751 24.7372H56.9258V15.5932H57.5253L57.6003 15.7431C58.9905 20.3771 64.7341 24.5062 69.7049 23.3131C70.3544 23.1632 70.9162 22.9384 71.3909 22.6386C71.891 22.3138 72.2783 21.9265 72.5534 21.4769C72.8277 21.0022 72.9653 20.465 72.9653 19.8654C72.9653 17.153 68.5415 15.9457 66.6694 15.2559C65.3203 14.7313 64.1461 14.2566 63.1467 13.8318C62.1474 13.3822 61.3603 12.9824 60.7858 12.6327C60.2111 12.2829 59.6865 11.9081 59.2118 11.5084C58.7371 11.0836 58.3249 10.6089 57.9751 10.0843C57.2755 9.08495 56.9258 8.06064 56.9258 7.01133C56.9258 6.03697 57.1631 5.15005 57.6378 4.35057C58.1374 3.52611 58.8245 2.78909 59.6989 2.13952C60.5734 1.48995 61.5727 0.977784 62.697 0.603026C63.8212 0.203287 65.0704 0.00341797 66.4445 0.00341797H67.5313C67.8311 0.00341797 68.1309 0.00341797 68.4307 0.00341797C68.7305 0.00341797 69.0179 0.0284016 69.2927 0.0783699C69.8423 0.153319 70.367 0.265746 70.8669 0.415649C71.3909 0.565551 71.8783 0.715449 72.3284 0.86535L72.7029 0.977784C73.1529 1.15267 73.5895 1.30256 74.0149 1.42748C74.4395 1.5524 74.8013 1.61487 75.1011 1.61487C75.451 1.61487 75.726 1.51493 75.9257 1.31506C76.126 1.09021 76.2254 0.690469 76.2254 0.115845H76.825L77.0874 8.32296H76.4878L76.4504 8.17307C76.1754 7.24864 75.8135 6.38674 75.3635 5.58726C74.9389 4.7628 74.2519 4.0008 73.3025 3.30126C72.8277 2.9265 72.291 2.61421 71.6914 2.36437C71.1166 2.11454 70.5294 1.91467 69.9297 1.76477C69.3551 1.61487 68.793 1.51493 68.2434 1.46496C67.6937 1.39001 67.219 1.35254 66.8193 1.35254C66.0448 1.35254 65.3577 1.47746 64.7582 1.72729C64.1585 1.97713 63.6838 2.23946 63.3341 2.51427C62.8593 2.88903 62.5471 3.28877 62.3972 3.71349C62.2472 4.13821 62.1723 4.46299 62.1723 4.68785C62.1723 4.88772 62.2098 5.10008 62.2848 5.32494C62.3597 5.54979 62.4471 5.74966 62.5471 5.92453H62.5845C62.8344 6.17438 63.1342 6.4492 63.4839 6.749C63.8337 7.02382 64.1835 7.26119 64.5333 7.46102C64.908 7.66092 65.4951 7.93572 66.2946 8.28551C67.119 8.63529 68.1434 9.02253 69.3676 9.44722C71.0665 10.0968 72.5534 10.7589 73.8272 11.4334C75.1011 12.083 76.0258 12.6951 76.6007 13.2697Z" fill="black"/>
<path d="M53.3014 21.6636C53.6262 22.2882 54.001 22.8754 54.4257 23.425C54.8754 23.9496 55.4501 24.2119 56.1495 24.2119V24.8116H45.3941V24.2119C45.7439 24.2119 46.0936 24.1495 46.4434 24.0246C46.8182 23.8747 47.0056 23.5749 47.0056 23.1252C47.0305 22.9752 46.9431 22.663 46.7432 22.1883C46.5683 21.6886 46.3435 21.1515 46.0686 20.5768C45.8188 20.0022 45.544 19.4401 45.2442 18.8905C44.9694 18.3408 44.757 17.9286 44.6072 17.6538H36.1002C36.1002 17.7037 36.0627 17.8037 35.9877 17.9535C35.9378 18.0785 35.9253 18.1159 35.9503 18.066C35.4007 19.1902 34.9634 20.1146 34.6386 20.8391C34.3388 21.5637 34.189 22.2382 34.189 22.8628C34.189 23.7623 34.6261 24.2119 35.5006 24.2119V24.8116H29.8418V24.2119C30.2166 24.2119 30.5414 24.137 30.8162 23.9871C31.1159 23.8122 31.3908 23.5998 31.6406 23.35C31.8904 23.0752 32.1028 22.7754 32.2777 22.4506C32.4526 22.1258 32.615 21.801 32.7648 21.4762C33.2645 20.3769 33.8017 19.1902 34.3763 17.9161C34.9509 16.6169 35.5256 15.3053 36.1002 13.9811C36.6998 12.632 37.2744 11.3204 37.8241 10.0462C38.3987 8.74707 38.9358 7.54783 39.4355 6.44858L39.2106 6.03635C38.8859 5.3618 38.5611 4.71222 38.2363 4.08763C37.9365 3.46304 37.6117 2.9134 37.262 2.43871C36.9122 1.96402 36.5125 1.58927 36.0627 1.31445C35.638 1.01465 35.1508 0.864744 34.6012 0.864744V0.265137H42.9207L53.3014 21.6636ZM43.6702 15.8549L40.4473 8.39729H40.2975L36.9621 15.8549H43.6702Z" fill="black"/>
<path d="M12.9233 0.00341797V9.27032C11.2277 7.81701 10.0879 5.09282 10.0879 1.97535C10.0879 1.29619 10.142 0.636981 10.2446 0.00341797H12.9233Z" fill="#28A745"/>
<path d="M3.17708 7.18614C5.38173 9.39079 8.11355 10.5107 10.341 10.3416C10.5101 8.11325 9.39116 5.38235 7.18651 3.17676C4.98183 0.972108 2.25 -0.147788 0.0225626 0.0222389C-0.146514 2.24969 0.972434 4.98151 3.17803 7.18614H3.17708Z" fill="#28A745"/>
<path d="M14.808 22.916C14.808 23.5942 14.7539 24.2534 14.6522 24.8861H11.9727V15.6182C13.6672 17.0744 14.808 19.7957 14.808 22.916Z" fill="#28A745"/>
<path d="M21.7177 17.7044C19.5131 15.4997 16.7813 14.3798 14.5538 14.5489C14.3847 16.7773 15.5037 19.5082 17.7084 21.7137C19.913 23.9184 22.6448 25.0383 24.8733 24.8683C25.0423 22.6409 23.9234 19.909 21.7177 17.7044Z" fill="#28A745"/>
<path d="M24.887 10.2392V12.9198H15.6191C17.0753 11.2243 19.7986 10.0835 22.917 10.0835C23.5952 10.0835 24.2544 10.1376 24.887 10.2392Z" fill="#28A745"/>
<path d="M17.7093 3.17754C15.5046 5.38219 14.3847 8.11404 14.5538 10.3415C16.7822 10.5105 19.5131 9.39157 21.7186 7.18692C23.9233 4.9823 25.0432 2.25047 24.8732 0.0220744C22.6457 -0.147003 19.9139 0.971945 17.7093 3.17754Z" fill="#28A745"/>
<path d="M11.9727 24.8851V15.6182C13.6682 17.0715 14.808 19.7957 14.808 22.9132C14.808 23.5923 14.7539 24.2515 14.6513 24.8851H11.9727Z" fill="#28A745"/>
<path d="M21.7177 17.7044C19.5131 15.4997 16.7813 14.3798 14.5538 14.5489C14.3847 16.7773 15.5037 19.5082 17.7084 21.7137C19.913 23.9184 22.6448 25.0383 24.8733 24.8683C25.0423 22.6409 23.9234 19.909 21.7177 17.7044Z" fill="#28A745"/>
<path d="M10.0859 1.97345C10.0859 1.29524 10.1401 0.636031 10.2417 0.00341797H12.9213V9.27131C11.2267 7.81518 10.0859 5.09377 10.0859 1.97345Z" fill="#28A745"/>
<path d="M3.17708 7.186C5.38173 9.39065 8.11358 10.5105 10.341 10.3415C10.5101 8.11305 9.39111 5.38219 7.18646 3.1766C4.98183 0.971945 2.25001 -0.147002 0.0225627 0.0220746C-0.146514 2.24952 0.972431 4.98135 3.17803 7.186H3.17708Z" fill="#28A745"/>
<path d="M0.00585938 14.6498V11.9692H9.27372C7.81759 13.6648 5.09431 14.8056 1.97589 14.8056C1.29769 14.8056 0.638473 14.7514 0.00585938 14.6498Z" fill="#28A745"/>
<path d="M7.18646 21.7128C9.39111 19.5082 10.511 16.7764 10.3419 14.5489C8.11358 14.3799 5.38268 15.4988 3.17708 17.7035C0.972431 19.909 -0.146514 22.6399 0.0225629 24.8683C2.25001 25.0374 4.98183 23.9184 7.18646 21.7128Z" fill="#28A745"/>
<path d="M139.009 36.8638C139.549 36.8638 139.952 36.5416 140.008 35.9294H140.926C140.758 36.9283 139.871 37.3391 138.945 37.3391C137.697 37.3391 136.818 36.4771 136.818 35.1078C136.818 33.8189 137.616 32.8281 138.929 32.8281C140.081 32.8281 140.967 33.5612 140.943 35.1239H137.801C137.801 36.2113 138.228 36.8638 139.009 36.8638ZM138.921 33.2873C138.309 33.2873 137.857 33.682 137.801 34.6406H139.952C139.976 33.674 139.509 33.2873 138.921 33.2873Z" fill="black"/>
<path d="M132.303 35.0836C132.303 33.6981 133.173 32.8281 134.414 32.8281C135.3 32.8281 136.186 33.2873 136.355 34.3184H135.444C135.42 33.5692 134.872 33.3034 134.462 33.3034C133.713 33.3034 133.326 33.9881 133.326 35.0836C133.326 36.1469 133.705 36.8638 134.47 36.8638C134.881 36.8638 135.42 36.6221 135.444 35.865H136.355C136.178 36.9041 135.3 37.3391 134.414 37.3391C133.173 37.3391 132.303 36.453 132.303 35.0836Z" fill="black"/>
<path d="M131.472 34.3748V36.6302C131.472 36.8477 131.504 36.88 131.722 36.9041L132.068 36.9363V37.2343H129.933V36.9363L130.272 36.9041C130.489 36.88 130.529 36.8477 130.529 36.6302V34.697C130.529 33.7626 130.32 33.4081 129.772 33.4081C129.168 33.4081 128.83 33.9156 128.83 34.6244V36.6302C128.83 36.8477 128.87 36.88 129.088 36.9041L129.426 36.9363V37.2343H127.291V36.9363L127.638 36.9041C127.855 36.88 127.888 36.8477 127.888 36.6302V33.4967C127.888 33.2954 127.855 33.2631 127.638 33.231L127.291 33.1987V32.9006H128.822V33.6256H128.83C129.08 33.1504 129.539 32.8281 130.175 32.8281C131.214 32.8281 131.472 33.5773 131.472 34.3748Z" fill="black"/>
<path d="M124.919 36.8638C125.459 36.8638 125.862 36.5416 125.918 35.9294H126.836C126.667 36.9283 125.781 37.3391 124.855 37.3391C123.607 37.3391 122.729 36.4771 122.729 35.1078C122.729 33.8189 123.526 32.8281 124.839 32.8281C125.991 32.8281 126.877 33.5612 126.853 35.1239H123.711C123.711 36.2113 124.138 36.8638 124.919 36.8638ZM124.83 33.2873C124.219 33.2873 123.768 33.682 123.711 34.6406H125.862C125.886 33.674 125.419 33.2873 124.83 33.2873Z" fill="black"/>
<path d="M122.475 33.4162L121.323 33.3276C121.556 33.5773 121.702 33.8995 121.702 34.3184C121.702 35.3091 120.896 35.8006 119.97 35.8006C119.784 35.8006 119.607 35.7844 119.454 35.7441C119.293 35.8166 119.212 35.9133 119.212 36.0341C119.212 36.2597 119.406 36.316 119.752 36.3483L120.904 36.4288C121.999 36.4933 122.305 36.8477 122.305 37.3551C122.305 38.064 121.419 38.797 119.994 38.797C118.616 38.797 118.061 38.3137 118.061 37.7982C118.061 37.3793 118.527 37.0894 119.068 37.0249C118.592 36.9041 118.415 36.6544 118.415 36.3402C118.415 36.018 118.81 35.7764 119.236 35.6878C118.657 35.4864 118.238 35.0272 118.238 34.3184C118.238 33.3276 119.043 32.8281 119.97 32.8281C120.26 32.8281 120.526 32.8765 120.767 32.9731L122.475 32.9006V33.4162ZM119.97 35.4139C120.477 35.4139 120.767 35.0594 120.767 34.3184C120.767 33.5692 120.477 33.2148 119.97 33.2148C119.462 33.2148 119.172 33.5692 119.172 34.3184C119.172 35.0594 119.462 35.4139 119.97 35.4139ZM120.606 37.1457L119.414 37.0732C119.374 37.0732 119.333 37.0652 119.293 37.0652C119.076 37.1619 118.899 37.3954 118.899 37.6452C118.899 38.064 119.277 38.3702 120.05 38.3702C120.823 38.3702 121.412 38.056 121.412 37.629C121.412 37.3068 121.186 37.178 120.606 37.1457Z" fill="black"/>
<path d="M117.242 32.9008L117.234 33.9721V36.6303C117.234 36.8479 117.275 36.88 117.492 36.9042L117.83 36.9365V37.2345H115.695V36.9365L116.042 36.9042C116.26 36.88 116.292 36.8479 116.292 36.6303V33.4969C116.292 33.2955 116.26 33.2633 116.042 33.231L115.695 33.1989V32.9008H117.242ZM116.292 32.3208V31.2334H117.234V32.3208H116.292Z" fill="black"/>
<path d="M113.223 31.2334H114.769L114.762 32.3369V36.6303C114.762 36.8479 114.802 36.88 115.019 36.9042L115.358 36.9365V37.2345H113.223V36.9365L113.569 36.9042C113.787 36.88 113.819 36.8479 113.819 36.6303V31.8375C113.819 31.62 113.787 31.5959 113.569 31.5717L113.223 31.5314V31.2334Z" fill="black"/>
<path d="M110.863 31.2334H112.41L112.402 32.3369V36.6303C112.402 36.8479 112.443 36.88 112.66 36.9042L112.998 36.9365V37.2345H110.863V36.9365L111.21 36.9042C111.428 36.88 111.459 36.8479 111.459 36.6303V31.8375C111.459 31.62 111.428 31.5959 111.21 31.5717L110.863 31.5314V31.2334Z" fill="black"/>
<path d="M108.602 36.8638C109.141 36.8638 109.544 36.5416 109.6 35.9294H110.519C110.35 36.9283 109.464 37.3391 108.537 37.3391C107.288 37.3391 106.41 36.4771 106.41 35.1078C106.41 33.8189 107.208 32.8281 108.521 32.8281C109.673 32.8281 110.559 33.5612 110.535 35.1239H107.393C107.393 36.2113 107.82 36.8638 108.602 36.8638ZM108.513 33.2873C107.901 33.2873 107.45 33.682 107.393 34.6406H109.544C109.568 33.674 109.101 33.2873 108.513 33.2873Z" fill="black"/>
<path d="M106.031 32.9013V33.4169H104.799V36.0107C104.799 36.5503 104.92 36.6712 105.427 36.6712H106.023V37.235H105.282C104.155 37.235 103.856 37.0739 103.856 36.1154V33.4169H103.1V32.9013H103.856V31.5239H104.799V32.9013H106.031Z" fill="black"/>
<path d="M102.591 34.3748V36.6302C102.591 36.8477 102.623 36.88 102.84 36.9041L103.188 36.9363V37.2343H101.052V36.9363L101.391 36.9041C101.608 36.88 101.648 36.8477 101.648 36.6302V34.697C101.648 33.7626 101.439 33.4081 100.892 33.4081C100.287 33.4081 99.9492 33.9156 99.9492 34.6244V36.6302C99.9492 36.8477 99.9894 36.88 100.207 36.9041L100.545 36.9363V37.2343H98.4102V36.9363L98.7565 36.9041C98.9744 36.88 99.0062 36.8477 99.0062 36.6302V33.4967C99.0062 33.2954 98.9744 33.2631 98.7565 33.231L98.4102 33.1987V32.9006H99.9408V33.6256H99.9492C100.199 33.1504 100.658 32.8281 101.294 32.8281C102.333 32.8281 102.591 33.5773 102.591 34.3748Z" fill="black"/>
<path d="M97.8447 36.928V37.234H95.5488V36.928L95.9438 36.8877C96.1611 36.8635 96.1935 36.7829 96.1935 36.6218V32.0062C96.1935 31.8451 96.1611 31.7485 95.9438 31.7243L95.5488 31.6921V31.394H97.8447V31.6921L97.4498 31.7243C97.2325 31.7485 97.2001 31.8451 97.2001 32.0062V36.6218C97.2001 36.7829 97.2325 36.8635 97.4498 36.8877L97.8447 36.928Z" fill="black"/>
<path d="M91.8139 35.0838C91.8139 33.7305 91.2179 33.376 90.7185 33.376C90.0258 33.376 89.6231 34.0769 89.6231 35.0838C89.6231 36.0907 89.9694 36.7914 90.6543 36.7914C91.1692 36.7914 91.8139 36.437 91.8139 35.0838ZM91.0324 31.2334H92.6921L92.6836 32.3369V36.5578C92.6836 36.7754 92.7161 36.8076 92.9333 36.8317L93.2803 36.8639V37.162L91.7815 37.2587L91.7659 36.5095H91.7497C91.4916 36.9365 91.0408 37.3392 90.3637 37.3392C89.3409 37.3392 88.5996 36.4532 88.5996 35.0838C88.5996 33.6983 89.4213 32.8283 90.5168 32.8283C91.0973 32.8283 91.5078 33.1908 91.7413 33.6097H91.7575C91.7575 33.3277 91.7413 33.2149 91.7413 32.9008V31.8375C91.7413 31.62 91.701 31.5959 91.4838 31.5717L91.0324 31.5314V31.2334Z" fill="black"/>
<path d="M86.1271 36.8638C86.6667 36.8638 87.0694 36.5416 87.1259 35.9294H88.0442C87.8749 36.9283 86.989 37.3391 86.0622 37.3391C84.8137 37.3391 83.9355 36.4771 83.9355 35.1078C83.9355 33.8189 84.7333 32.8281 86.046 32.8281C87.1978 32.8281 88.0844 33.5612 88.0597 35.1239H84.9188C84.9188 36.2113 85.3456 36.8638 86.1271 36.8638ZM86.0382 33.2873C85.426 33.2873 84.9752 33.682 84.9188 34.6406H87.0694C87.0934 33.674 86.6265 33.2873 86.0382 33.2873Z" fill="black"/>
<path d="M79.4199 35.0836C79.4199 33.6981 80.2896 32.8281 81.5303 32.8281C82.4163 32.8281 83.3022 33.2873 83.4715 34.3184H82.5616C82.5369 33.5692 81.9895 33.3034 81.5783 33.3034C80.8292 33.3034 80.4427 33.9881 80.4427 35.0836C80.4427 36.1469 80.8215 36.8638 81.5868 36.8638C81.9973 36.8638 82.5369 36.6221 82.5616 35.865H83.4715C83.2944 36.9041 82.4163 37.3391 81.5303 37.3391C80.2896 37.3391 79.4199 36.453 79.4199 35.0836Z" fill="black"/>
<path d="M77.5209 32.9024V33.869H77.5371C77.7705 33.2488 78.2862 32.8701 78.9309 32.8701H79.3089V33.7563H78.5436C77.9159 33.7563 77.5293 33.9495 77.5293 34.8275V36.6239C77.5293 36.8413 77.5695 36.8816 77.7868 36.8897L78.3906 36.93V37.236H75.9902V36.938L76.3366 36.9058C76.5545 36.8816 76.5863 36.8494 76.5863 36.6319V33.4984C76.5863 33.2971 76.5545 33.2648 76.3366 33.2327L75.9902 33.2004V32.9024H77.5209Z" fill="black"/>
<path d="M74.1244 37.3071L74.0927 36.5499H74.0842C73.8345 37.0251 73.4078 37.3393 72.7631 37.3393C71.7318 37.3393 71.4984 36.5902 71.4984 35.7927V33.497C71.4984 33.2956 71.4666 33.2634 71.2487 33.2312L70.9023 33.199V32.9009H72.4492L72.4407 33.9964V35.4786C72.4407 36.413 72.6262 36.7593 73.1743 36.7593C73.7781 36.7593 74.0842 36.2519 74.0842 35.543V33.497C74.0842 33.2956 74.0517 33.2634 73.8345 33.2312L73.4882 33.199V32.9009H75.035L75.0265 33.9964V36.5579C75.0265 36.7755 75.0667 36.8077 75.2847 36.8318L75.6226 36.864V37.1621L74.1244 37.3071Z" fill="black"/>
<path d="M69.7172 35.0836C69.7172 33.7948 69.2339 33.3034 68.5895 33.3034C67.9692 33.3034 67.4859 33.7948 67.4859 35.0836C67.4859 36.3725 67.9692 36.8638 68.5895 36.8638C69.2339 36.8638 69.7172 36.3725 69.7172 35.0836ZM70.7399 35.0836C70.7399 36.4691 69.838 37.3391 68.5814 37.3391C67.3329 37.3391 66.4629 36.4691 66.4629 35.0836C66.4629 33.6981 67.3409 32.8281 68.5895 32.8281C69.846 32.8281 70.7399 33.6981 70.7399 35.0836Z" fill="black"/>
<path d="M65.8534 33.0305H64.8787C64.7901 32.1846 64.2021 31.7578 63.4207 31.7578C62.8649 31.7578 62.1399 31.9914 62.1399 32.6358C62.1399 33.2157 62.6555 33.4735 63.2838 33.6265L63.9282 33.7957C64.9512 34.0535 65.9984 34.432 65.9984 35.592C65.9984 36.7681 64.8143 37.34 63.6383 37.34C62.2285 37.34 61.2539 36.5989 61.0605 35.3182H62.0594C62.148 36.1075 62.583 36.8405 63.6624 36.8405C64.2988 36.8405 65.0801 36.5506 65.0801 35.7853C65.0801 35.1006 64.4115 34.8751 63.6704 34.6818L62.9374 34.4885C62.0594 34.2709 61.2378 33.7555 61.2378 32.7969C61.2378 31.7255 62.3736 31.2583 63.5174 31.2583C64.8304 31.2583 65.6843 32.0638 65.8534 33.0305Z" fill="black"/>
<path d="M58.6162 34.3748V36.6302C58.6162 36.8477 58.6484 36.88 58.8659 36.9041L59.2123 36.9363V37.2343H57.0777V36.9363L57.416 36.9041C57.6335 36.88 57.6738 36.8477 57.6738 36.6302V34.697C57.6738 33.7626 57.4643 33.4081 56.9166 33.4081C56.3124 33.4081 55.9741 33.9156 55.9741 34.6244V36.6302C55.9741 36.8477 56.0144 36.88 56.2319 36.9041L56.5702 36.9363V37.2343H54.4355V36.9363L54.7819 36.9041C54.9994 36.88 55.0316 36.8477 55.0316 36.6302V33.4967C55.0316 33.2954 54.9994 33.2631 54.7819 33.231L54.4355 33.1987V32.9006H55.9661V33.6256H55.9741C56.2238 33.1504 56.6829 32.8281 57.3193 32.8281C58.3584 32.8281 58.6162 33.5773 58.6162 34.3748Z" fill="black"/>
<path d="M52.6999 35.3172V35.0675C51.6608 35.1964 50.9117 35.285 50.9117 36.0905C50.9117 36.5013 51.1936 36.7913 51.6528 36.7913C52.1924 36.7913 52.6999 36.445 52.6999 35.3172ZM52.6838 34.6164V34.3184C52.6838 33.545 52.418 33.2793 51.8058 33.2793C51.2178 33.2793 50.9439 33.674 50.9117 34.2539H50.0256C50.0901 33.4081 50.8553 32.8281 51.8381 32.8281C53.0383 32.8281 53.6182 33.247 53.594 34.4714C53.586 34.7212 53.5779 35.0836 53.5779 35.4622C53.5779 35.8247 53.5699 36.1872 53.594 36.5658C53.6182 36.7833 53.6263 36.8155 53.8438 36.8396L54.1901 36.8718V37.1699L52.8449 37.2585L52.7805 36.4691H52.7564C52.4744 36.9927 52.0717 37.3391 51.2742 37.3391C50.4767 37.3391 49.8887 36.8718 49.8887 36.163C49.8887 35.1319 51.0728 34.8097 52.6838 34.6164Z" fill="black"/>
<path d="M45.3887 35.0836C45.3887 33.6981 46.2587 32.8281 47.4992 32.8281C48.3852 32.8281 49.2713 33.2873 49.4404 34.3184H48.5302C48.506 33.5692 47.9583 33.3034 47.5475 33.3034C46.7984 33.3034 46.4117 33.9881 46.4117 35.0836C46.4117 36.1469 46.7903 36.8638 47.5555 36.8638C47.9664 36.8638 48.506 36.6221 48.5302 35.865H49.4404C49.2632 36.9041 48.3852 37.3391 47.4992 37.3391C46.2587 37.3391 45.3887 36.453 45.3887 35.0836Z" fill="black"/>
<path d="M44.4724 32.9008L44.4644 33.9721V36.6303C44.4644 36.8479 44.5046 36.88 44.7221 36.9042L45.0604 36.9365V37.2345H42.9258V36.9365L43.2722 36.9042C43.4896 36.88 43.5219 36.8479 43.5219 36.6303V33.4969C43.5219 33.2955 43.4896 33.2633 43.2722 33.231L42.9258 33.1989V32.9008H44.4724ZM43.5219 32.3208V31.2334H44.4644V32.3208H43.5219Z" fill="black"/>
<path d="M41.009 32.9024V33.869H41.0251C41.2587 33.2488 41.7742 32.8701 42.4186 32.8701H42.7973V33.7563H42.032C41.4037 33.7563 41.017 33.9495 41.017 34.8275V36.6239C41.017 36.8413 41.0573 36.8816 41.2748 36.8897L41.879 36.93V37.236H39.4785V36.938L39.8249 36.9058C40.0424 36.8816 40.0746 36.8494 40.0746 36.6319V33.4984C40.0746 33.2971 40.0424 33.2648 39.8249 33.2327L39.4785 33.2004V32.9024H41.009Z" fill="black"/>
<path d="M38.7813 36.9284V37.2345H36.3809V36.9365L36.7273 36.9042C36.9447 36.88 36.977 36.8479 36.977 36.6303V33.4163H36.3809V32.9008H36.977V32.4417C36.977 31.3865 37.5408 31.2334 38.6041 31.2334H39.3532V31.7973H38.4994C38.0403 31.7973 37.9194 31.9342 37.9194 32.3208V32.9008H39.3532V33.4163H37.9194V36.6223C37.9194 36.8398 37.9597 36.88 38.1772 36.8881L38.7813 36.9284Z" fill="black"/>
<path d="M30.933 36.6218L32.9871 31.394H33.6476L35.7017 36.6218C35.7661 36.7749 35.8144 36.8796 36.0158 36.9038L36.33 36.928V37.234H34.0182V36.928L34.4128 36.8877C34.6384 36.8715 34.7189 36.7829 34.6464 36.6218L34.2195 35.5183H31.9963L31.5774 36.6218C31.521 36.7829 31.5935 36.8715 31.811 36.8877L32.2057 36.928V37.234H30.3047V36.928L30.6269 36.9038C30.8202 36.8796 30.8685 36.7749 30.933 36.6218ZM33.1079 32.6184L32.1976 35.0028H34.0262L33.1079 32.6184Z" fill="black"/>
</g>
<defs>
<clipPath id="clip0_392_5289">
<rect width="141" height="38.8649" fill="white"/>
</clipPath>
</defs>
</svg>
