<svg width="72" height="43" viewBox="0 0 72 43" fill="none" xmlns="http://www.w3.org/2000/svg">
<g clip-path="url(#clip0_495_1344)">
<path d="M57.685 0L50.2363 1.58285V31.6569H57.685V0Z" fill="#56BD82"/>
<path d="M36.4762 8.99019C34.2029 8.99019 31.9807 9.66428 30.0906 10.9272C28.2005 12.1902 26.7273 13.9853 25.8573 16.0855C24.9874 18.1857 24.7598 20.4967 25.2033 22.7262C25.6468 24.9558 26.7414 27.0038 28.3489 28.6112C29.9563 30.2187 32.0043 31.3133 34.2338 31.7568C36.4634 32.2003 38.7744 31.9727 40.8746 31.1028C42.9748 30.2328 44.7699 28.7596 46.0329 26.8695C47.2958 24.9794 47.9699 22.7572 47.9699 20.4839C47.9696 17.4357 46.7586 14.5124 44.6032 12.3569C42.4477 10.2015 39.5244 8.99046 36.4762 8.99019ZM36.4762 24.2083C35.7396 24.2083 35.0195 23.9898 34.407 23.5806C33.7946 23.1714 33.3172 22.5897 33.0353 21.9092C32.7534 21.2286 32.6797 20.4798 32.8234 19.7573C32.9671 19.0349 33.3218 18.3713 33.8427 17.8504C34.3635 17.3296 35.0271 16.9748 35.7496 16.8311C36.472 16.6874 37.2209 16.7612 37.9014 17.0431C38.5819 17.325 39.1636 17.8023 39.5728 18.4148C39.9821 19.0273 40.2005 19.7473 40.2005 20.4839C40.2005 21.4717 39.8081 22.419 39.1097 23.1174C38.4112 23.8159 37.4639 24.2083 36.4762 24.2083Z" fill="#56BD82"/>
<path d="M36.4763 34.6572C37.2129 34.6572 37.933 34.8757 38.5454 35.2849C39.1579 35.6941 39.6353 36.2758 39.9171 36.9563C40.199 37.6369 40.2728 38.3857 40.1291 39.1082C39.9854 39.8306 39.6307 40.4942 39.1098 41.0151C38.5889 41.5359 37.9253 41.8907 37.2029 42.0344C36.4804 42.1781 35.7316 42.1043 35.0511 41.8224C34.3705 41.5405 33.7889 41.0632 33.3796 40.4507C32.9704 39.8382 32.752 39.1182 32.752 38.3816C32.752 37.3938 33.1443 36.4465 33.8428 35.7481C34.5412 35.0496 35.4885 34.6572 36.4763 34.6572Z" fill="#56BD82"/>
<path d="M19.9026 14.9181C20.8174 13.4368 21.3201 11.7382 21.359 9.9976C21.3978 8.25705 20.9713 6.53769 20.1235 5.01709C19.2756 3.49649 18.0372 2.22978 16.5362 1.3478C15.0352 0.465818 13.3259 0.000532672 11.5849 0L-0.00195312 0V31.6569H13.0332C14.9725 31.6562 16.8677 31.0789 18.4781 29.9986C20.0885 28.9183 21.3414 27.3836 22.0776 25.5896C22.8139 23.7956 23.0002 21.8232 22.6129 19.9231C22.2256 18.023 21.2822 16.2808 19.9026 14.9181ZM7.45708 7.44869H11.5952C12.2126 7.44869 12.8047 7.69393 13.2412 8.13046C13.6777 8.56699 13.923 9.15905 13.923 9.7764C13.923 10.3938 13.6777 10.9858 13.2412 11.4223C12.8047 11.8589 12.2126 12.1041 11.5952 12.1041H7.45708V7.44869ZM13.0436 24.2082H7.45708V19.5528H13.0436C13.6609 19.5528 14.253 19.798 14.6895 20.2346C15.1261 20.6711 15.3713 21.2632 15.3713 21.8805C15.3713 22.4979 15.1261 23.0899 14.6895 23.5265C14.253 23.963 13.6609 24.2082 13.0436 24.2082Z" fill="#56BD82"/>
<path d="M71.7551 16.8628V9.41409H68.0307V3.72412L60.582 5.30697V24.5804C60.582 29.1221 63.4063 31.7395 67.5652 31.9567C67.6066 31.9567 67.6583 31.9671 67.6997 31.9671H67.7721C67.8652 31.9671 67.948 31.9774 68.0411 31.9774H68.1342C69.4029 31.9718 70.6505 31.6519 71.7654 31.0463V25.5633C71.2226 25.7107 70.6623 25.7837 70.0998 25.7805C68.6101 25.7805 68.0411 24.477 68.0411 22.7079V16.8628H71.7551Z" fill="#56BD82"/>
</g>
<defs>
<clipPath id="clip0_495_1344">
<rect width="71.766" height="42.1058" fill="white"/>
</clipPath>
</defs>
</svg>
