<svg width="250" height="33" viewBox="0 0 250 33" fill="none" xmlns="http://www.w3.org/2000/svg">
<path d="M156.624 5.00555C157.315 5.00555 158.041 5.06092 158.8 5.17158C159.559 5.28224 160.306 5.42608 161.043 5.60313C161.779 5.78019 162.471 5.97939 163.118 6.20071C163.788 6.3999 164.368 6.61014 164.859 6.83146C165.171 6.9421 165.417 6.83144 165.596 6.49948C165.796 6.14537 165.908 5.79125 165.93 5.43715L165.797 5.20475H166.566V13.2386H165.863C165.729 12.1321 165.439 11.1582 164.993 10.3172C164.547 9.47621 163.989 8.77906 163.319 8.22577C162.672 7.65034 161.924 7.22982 161.076 6.96424C160.228 6.67652 159.324 6.53269 158.364 6.53269C157.226 6.53269 156.233 6.84252 155.385 7.4622C154.537 8.05976 153.834 8.84543 153.276 9.81924C152.74 10.7709 152.339 11.8332 152.071 13.0062C151.803 14.1571 151.669 15.2747 151.669 16.3592C151.669 17.4436 151.803 18.5834 152.071 19.7785C152.339 20.9515 152.74 22.036 153.276 23.0319C153.834 24.0057 154.537 24.8135 155.385 25.4554C156.233 26.0972 157.226 26.4181 158.364 26.4181C159.302 26.4181 160.183 26.2632 161.009 25.9533C161.857 25.6214 162.605 25.1566 163.252 24.559C163.921 23.9615 164.479 23.2422 164.926 22.4012C165.395 21.5602 165.729 20.6085 165.93 19.5462H166.6V27.5468H165.83L165.997 27.3476C165.953 26.8829 165.83 26.5398 165.629 26.3185C165.428 26.0972 165.149 26.0529 164.792 26.1857C163.542 26.6062 162.293 26.9603 161.043 27.248C159.793 27.5136 158.521 27.6464 157.226 27.6464C155.708 27.6464 154.258 27.4251 152.875 26.9824C151.513 26.5177 150.297 25.8316 149.225 24.9242C148.176 24.0168 147.339 22.877 146.715 21.5048C146.09 20.1327 145.777 18.5281 145.777 16.6911C145.777 14.9206 146.045 13.3161 146.581 11.8775C147.138 10.4389 147.897 9.21061 148.857 8.19256C149.839 7.1745 150.988 6.38883 152.305 5.83553C153.644 5.28224 155.084 5.00556 156.624 5.00555Z" fill="black"/>
<path fill-rule="evenodd" clip-rule="evenodd" d="M145.212 24.3596C145.503 24.9129 145.837 25.433 146.217 25.9199C146.618 26.3847 147.132 26.617 147.757 26.617V27.1482H138.149V26.617C138.461 26.617 138.774 26.5617 139.086 26.4511C139.421 26.3183 139.588 26.0527 139.588 25.6543C139.61 25.5215 139.532 25.2448 139.354 24.8243C139.198 24.3817 138.997 23.9059 138.752 23.3969C138.528 22.8878 138.283 22.3899 138.015 21.903C137.769 21.4161 137.58 21.0509 137.446 20.8074H129.847C129.847 20.8517 129.813 20.9402 129.746 21.073C129.702 21.1836 129.691 21.2169 129.713 21.1726C129.222 22.1686 128.831 22.9874 128.541 23.6292C128.273 24.2711 128.139 24.8686 128.139 25.4219C128.139 26.2187 128.53 26.617 129.311 26.617V27.1482H124.256V26.617C124.591 26.617 124.881 26.5506 125.126 26.4178C125.394 26.2629 125.64 26.0748 125.863 25.8535C126.086 25.61 126.276 25.3444 126.432 25.0567C126.588 24.769 126.733 24.4813 126.867 24.1936C127.314 23.2198 127.793 22.1685 128.307 21.0398C128.82 19.889 129.333 18.7271 129.847 17.5541C130.382 16.359 130.896 15.197 131.387 14.0683C131.9 12.9175 132.38 11.8551 132.826 10.8813L132.625 10.5161C132.335 9.91858 132.045 9.34313 131.755 8.78986C131.487 8.23657 131.197 7.74964 130.884 7.32914C130.572 6.90863 130.215 6.57667 129.813 6.33321C129.434 6.06763 128.999 5.93483 128.507 5.93483V5.4037H135.939L145.212 24.3596ZM130.617 19.2139H136.609L133.73 12.6076H133.596L130.617 19.2139Z" fill="black"/>
<path d="M59.0199 11.3164L58.5512 11.2832C58.5064 11.0619 58.4171 10.7078 58.2835 10.2209C58.1494 9.71185 57.9709 9.2028 57.7476 8.69378C57.5467 8.18476 57.3125 7.74213 57.0448 7.36589C56.777 6.96752 56.5089 6.76831 56.2411 6.76831H47.872C47.872 7.16668 47.8609 7.56506 47.8385 7.96342V15.3665H52.9605C53.2283 15.3665 53.4849 15.2669 53.7305 15.0678C53.9759 14.8686 54.188 14.6251 54.3665 14.3374C54.545 14.0276 54.6903 13.7066 54.8015 13.3747C54.9132 13.0427 54.9692 12.755 54.9692 12.5115V11.8808L55.4379 11.9472V20.0474H55.0024C54.9804 19.7376 54.9244 19.4056 54.8351 19.0515C54.7683 18.6752 54.6566 18.3322 54.5006 18.0224C54.3441 17.7125 54.1436 17.458 53.8978 17.2588C53.6524 17.0596 53.3622 16.96 53.0275 16.96H47.8385L47.6712 25.7906L54.7683 25.7242C55.2146 25.6357 55.6608 25.5693 56.1075 25.525C56.5761 25.4586 56.9887 25.2816 57.3462 24.9939C57.7256 24.7061 58.0265 24.2525 58.2499 23.6328C58.4952 22.991 58.6405 22.0614 58.6849 20.8441H59.1203V27.1185H39.6367V26.6206C39.9938 26.5985 40.3398 26.532 40.6745 26.4214C41.0316 26.3107 41.3441 26.1558 41.6119 25.9566C41.902 25.7353 42.1252 25.4697 42.2814 25.1599C42.4599 24.85 42.5492 24.4848 42.5492 24.0644V8.46143C42.5492 7.57615 42.2479 6.9454 41.6453 6.56915C41.0427 6.17078 40.3732 5.94943 39.6367 5.90516V5.37404H59.0199V11.3164Z" fill="black"/>
<path d="M70.2702 5.90166C70.1137 5.90166 69.9688 5.9127 69.8348 5.93483C69.7231 5.95696 69.4441 6.08977 68.9979 6.33321C68.5517 6.55453 68.5068 7.03038 68.8638 7.76073C69.2432 8.46895 69.924 9.6862 70.9062 11.4125C71.9103 13.1166 72.4126 14.0019 72.4126 14.0683H72.4794C75.2914 9.73054 76.6974 7.40669 76.6974 7.09678C76.6974 6.67628 76.5749 6.37749 76.3292 6.20043C76.0839 6.00125 75.7713 5.90166 75.3919 5.90166V5.4037H81.0831V5.90166L78.907 6.53241L73.2159 15.3298C74.1312 16.9897 74.9792 18.5057 75.7601 19.8779C76.5413 21.25 77.3894 22.6554 78.3043 24.094C79.2196 25.5104 79.9 26.285 80.3467 26.4178C80.7929 26.5285 81.362 26.5838 82.054 26.5838V27.115H71.5757V26.5838H72.0444C72.2453 26.5617 72.4907 26.5285 72.7808 26.4842C73.071 26.4178 73.2719 26.3293 73.3836 26.2186C73.5172 26.0859 73.5841 25.9199 73.5841 25.7207C73.5172 25.61 72.2005 23.2086 69.6338 18.5168L69.1988 17.8196H69.0647C68.4624 18.5721 67.5363 19.9664 66.2864 22.0026C65.0589 24.0387 64.4449 25.2227 64.4449 25.5547C64.4449 25.9973 64.579 26.2851 64.8468 26.4178C65.1369 26.5285 65.4827 26.5838 65.8846 26.5838L66.1523 27.115H60.1602V26.5838L62.4698 25.5547L68.2947 16.3257C67.2905 14.3781 66.4088 12.7404 65.65 11.4125C64.8916 10.0846 64.2108 9.01115 63.6081 8.19228C63.0278 7.37341 62.4698 6.7869 61.9343 6.43279C61.3989 6.07869 60.8741 5.90167 60.3611 5.90166V5.4037H70.2702V5.90166Z" fill="black"/>
<path d="M99.6615 12.2424H98.9583C98.8467 11.1801 98.6906 10.2948 98.4897 9.58658C98.2888 8.85624 97.9874 8.26974 97.586 7.8271C97.1842 7.38447 96.6707 7.07464 96.0459 6.89759C95.4212 6.72053 94.6287 6.64306 93.669 6.66519H93.5685C93.5909 6.90864 93.6021 7.19635 93.6021 7.52833V24.0608C93.6021 24.8354 93.8363 25.444 94.3049 25.8867C94.796 26.3293 95.3763 26.5728 96.0459 26.617V27.115H85.5676V26.617C86.2596 26.5728 86.8396 26.3293 87.3082 25.8867C87.7769 25.444 88.0114 24.8354 88.0114 24.0608V13.6367L87.911 6.66519H87.8773C86.918 6.64306 86.1256 6.72053 85.5008 6.89759C84.8757 7.07464 84.3738 7.38447 83.9944 7.8271C83.615 8.2476 83.3248 8.82304 83.1239 9.5534C82.923 10.2616 82.7669 11.158 82.6552 12.2424H81.8516V5.4037H99.6615V12.2424Z" fill="black"/>
<path fill-rule="evenodd" clip-rule="evenodd" d="M114.654 5.37404C115.792 5.37404 116.785 5.57321 117.633 5.97158C118.504 6.34782 119.218 6.85685 119.776 7.49867C120.356 8.14049 120.791 8.87084 121.082 9.6897C121.372 10.4865 121.517 11.3164 121.517 12.1796C121.517 13.0206 121.294 13.8616 120.847 14.7026C120.423 15.5436 119.787 16.3071 118.939 16.9932C118.113 17.6572 117.098 18.1994 115.893 18.6199C114.688 19.0183 113.326 19.1953 111.808 19.1511L116.495 20.1138H116.562C116.585 20.0917 116.618 20.0806 116.663 20.0806L124.094 27.0853L117.131 27.1185L108.126 19.0847H108.059V24.0975C108.059 24.6951 108.171 25.1709 108.394 25.525C108.617 25.857 108.874 26.1116 109.164 26.2886C109.454 26.4435 109.733 26.5431 110.001 26.5874C110.269 26.6095 110.436 26.6206 110.503 26.6206V27.1185H100.594V26.6206C100.661 26.6206 100.828 26.6095 101.096 26.5874C101.364 26.5431 101.643 26.4435 101.933 26.2886C102.223 26.1116 102.48 25.857 102.703 25.525C102.948 25.1709 103.071 24.6951 103.071 24.0975V8.42822C103.071 7.83067 102.948 7.36589 102.703 7.03391C102.48 6.6798 102.223 6.42527 101.933 6.27034C101.643 6.0933 101.364 5.98264 101.096 5.93837C100.828 5.89411 100.661 5.872 100.594 5.872V5.37404H114.654ZM108.059 17.3584H112.076C112.813 17.3584 113.449 17.2256 113.984 16.96C114.542 16.6723 115 16.2961 115.357 15.8313C115.737 15.3444 116.016 14.7911 116.194 14.1714C116.373 13.5517 116.462 12.8878 116.462 12.1796C116.462 11.4935 116.373 10.8406 116.194 10.2209C116.016 9.57905 115.737 9.02577 115.357 8.561C115 8.07411 114.542 7.68681 113.984 7.39909C113.449 7.11138 112.813 6.9675 112.076 6.9675H108.059V17.3584Z" fill="black"/>
<path d="M185.794 12.2424H185.091C184.979 11.1801 184.823 10.2948 184.622 9.58658C184.422 8.85624 184.12 8.26974 183.718 7.8271C183.317 7.38447 182.803 7.07464 182.179 6.89759C181.554 6.72054 180.762 6.64306 179.802 6.66519H179.701C179.724 6.90864 179.735 7.19635 179.735 7.52833V24.0608C179.735 24.8354 179.969 25.444 180.438 25.8867C180.929 26.3293 181.509 26.5728 182.179 26.617V27.115H171.7V26.617C172.392 26.5728 172.972 26.3293 173.441 25.8867C173.91 25.444 174.144 24.8354 174.144 24.0608V13.6367L174.044 6.66519H174.01C173.051 6.64306 172.258 6.72053 171.634 6.89759C171.008 7.07464 170.507 7.38447 170.127 7.8271C169.748 8.2476 169.458 8.82304 169.257 9.5534C169.056 10.2616 168.9 11.158 168.788 12.2424H167.984V5.4037H185.794V12.2424Z" fill="black"/>
<path d="M197.204 5.90516C196.49 5.94943 195.898 6.1929 195.43 6.63553C194.983 7.07816 194.76 7.68681 194.76 8.46143V24.0644C194.76 24.839 194.983 25.4476 195.43 25.8902C195.898 26.3107 196.49 26.5431 197.204 26.5874V27.1185H187.061V26.5874C187.73 26.5431 188.299 26.3107 188.768 25.8902C189.237 25.4476 189.471 24.839 189.471 24.0644V8.46143C189.471 7.68681 189.237 7.07816 188.768 6.63553C188.299 6.19289 187.73 5.94943 187.061 5.90516V5.37404H197.204V5.90516Z" fill="black"/>
<path d="M238.182 23H238.316V8.49255C238.316 7.71795 238.07 7.10933 237.579 6.66669C237.088 6.20193 236.508 5.94743 235.839 5.90317V5.40516H242.132V5.90317C241.418 5.94743 240.827 6.20193 240.358 6.66669C239.889 7.10933 239.655 7.71794 239.655 8.49255V24.0623C239.655 24.8812 239.889 25.5009 240.358 25.9214C240.827 26.3419 241.418 26.5743 242.132 26.6185V27.1165H234.232L223.687 9.85368H223.586V24.0623C223.586 24.8369 223.82 25.4455 224.289 25.8882C224.78 26.3308 225.371 26.5743 226.063 26.6185V27.1165H219.736V26.6185C220.428 26.5743 221.008 26.3308 221.477 25.8882C221.968 25.4455 222.213 24.8369 222.213 24.0623V8.55896C222.213 7.78436 221.968 7.17574 221.477 6.7331C221.008 6.26833 220.428 6.0138 219.736 5.96954L219.803 5.33879L227.503 5.30559L238.182 23Z" fill="black"/>
<path fill-rule="evenodd" clip-rule="evenodd" d="M209.198 5.1721C210.627 5.1721 211.999 5.40449 213.316 5.86926C214.632 6.33403 215.793 7.02011 216.797 7.92752C217.802 8.83492 218.605 9.95256 219.208 11.2805C219.81 12.5863 220.112 14.1023 220.112 15.8286C220.112 17.7541 219.743 19.425 219.007 20.8414C218.293 22.2358 217.344 23.3976 216.161 24.3272C215.001 25.2346 213.684 25.9207 212.211 26.3855C210.738 26.8281 209.254 27.0494 207.759 27.0494C206.286 27.0494 204.891 26.806 203.574 26.3191C202.258 25.8322 201.097 25.135 200.093 24.2276C199.111 23.2981 198.329 22.1694 197.749 20.8414C197.169 19.4914 196.879 17.9533 196.879 16.227C196.879 14.3457 197.247 12.7191 197.984 11.3469C198.72 9.95256 199.668 8.80172 200.829 7.89431C202.012 6.96478 203.329 6.27869 204.779 5.83605C206.252 5.39342 207.725 5.1721 209.198 5.1721ZM207.558 6.89839C206.531 6.89839 205.694 7.14185 205.047 7.62875C204.4 8.11565 203.886 8.74641 203.507 9.52102C203.15 10.2956 202.905 11.1588 202.771 12.1104C202.637 13.04 202.57 13.9695 202.57 14.899C202.57 16.0056 202.693 17.1675 202.938 18.3848C203.184 19.602 203.563 20.7197 204.076 21.7377C204.59 22.7558 205.259 23.6079 206.085 24.294C206.911 24.9579 207.915 25.2899 209.098 25.2899C210.102 25.2899 210.939 25.0797 211.608 24.6591C212.278 24.2386 212.814 23.6743 213.215 22.9661C213.617 22.2579 213.896 21.4611 214.053 20.5759C214.209 19.6684 214.287 18.7279 214.287 17.7541C214.287 16.6032 214.175 15.386 213.952 14.1023C213.729 12.8186 213.349 11.6456 212.814 10.5833C212.3 9.52098 211.608 8.64681 210.738 7.96072C209.89 7.25251 208.83 6.89839 207.558 6.89839Z" fill="black"/>
<path d="M16.4062 0.576462V12.2368C14.2549 10.4082 12.8086 6.98035 12.8086 3.05769C12.8086 2.20312 12.8773 1.37366 13.0074 0.576462H16.4062Z" fill="#A97C50"/>
<path d="M4.04139 9.61298C6.83873 12.387 10.3051 13.7962 13.1313 13.5834C13.3459 10.7795 11.9261 7.34333 9.12872 4.56806C6.33132 1.79401 2.86507 0.384876 0.038772 0.598815C-0.175761 3.40155 1.24401 6.83896 4.04259 9.61298H4.04139Z" fill="#A97C50"/>
<path d="M18.7969 29.409C18.7969 30.2624 18.7282 31.0919 18.5992 31.8879H15.1992V20.2263C17.3494 22.0586 18.7969 25.4828 18.7969 29.409Z" fill="#A97C50"/>
<path d="M27.5623 22.8499C24.7649 20.0759 21.2986 18.6667 18.4724 18.8795C18.2578 21.6834 19.6776 25.1196 22.475 27.8949C25.2724 30.6689 28.7386 32.078 31.5661 31.8641C31.7806 29.0613 30.3609 25.624 27.5623 22.8499Z" fill="#A97C50"/>
<path d="M31.5877 13.4575V16.8304H19.8281C21.6758 14.697 25.1312 13.2615 29.088 13.2615C29.9486 13.2615 30.785 13.3297 31.5877 13.4575Z" fill="#A97C50"/>
<path d="M22.4762 4.56792C19.6788 7.34196 18.2578 10.7793 18.4724 13.5821C21.2999 13.7949 24.7649 12.3869 27.5635 9.61287C30.3609 6.83879 31.7819 3.40141 31.5661 0.597479C28.7398 0.384733 25.2735 1.79267 22.4762 4.56792Z" fill="#A97C50"/>
<path d="M15.1992 31.8867V20.2263C17.3506 22.055 18.7969 25.4828 18.7969 29.4055C18.7969 30.26 18.7282 31.0895 18.598 31.8867H15.1992Z" fill="#A97C50"/>
<path d="M27.5623 22.8499C24.7649 20.0759 21.2986 18.6667 18.4724 18.8795C18.2578 21.6834 19.6776 25.1196 22.475 27.8949C25.2724 30.6689 28.7386 32.078 31.5661 31.8641C31.7806 29.0613 30.3609 25.624 27.5623 22.8499Z" fill="#A97C50"/>
<path d="M12.8066 3.0553C12.8066 2.20193 12.8754 1.37246 13.0043 0.576462H16.4043V12.238C14.2542 10.4057 12.8066 6.98153 12.8066 3.0553Z" fill="#A97C50"/>
<path d="M4.04138 9.61162C6.83876 12.3857 10.305 13.7949 13.1313 13.5821C13.3458 10.7781 11.9261 7.34197 9.12869 4.56672C6.33135 1.79268 2.86507 0.384733 0.0387719 0.59748C-0.175761 3.40021 1.24402 6.8376 4.04259 9.61162H4.04138Z" fill="#A97C50"/>
<path d="M0.015625 19.0073V15.6345H11.7752C9.92752 17.7679 6.47209 19.2033 2.5153 19.2033C1.65476 19.2033 0.81832 19.1352 0.015625 19.0073Z" fill="#A97C50"/>
<path d="M9.12869 27.8937C11.9261 25.1196 13.3471 21.6822 13.1325 18.8795C10.305 18.6668 6.83996 20.0747 4.04138 22.8488C1.24402 25.624 -0.175761 29.0602 0.0387724 31.8641C2.86507 32.0769 6.33135 30.6689 9.12869 27.8937Z" fill="#A97C50"/>
</svg>
