<svg width="87" height="10" viewBox="0 0 87 10" fill="none" xmlns="http://www.w3.org/2000/svg">
<path d="M50.2508 0C50.5479 0 50.8596 0.0237833 51.1855 0.0713162C51.5115 0.118849 51.8326 0.180633 52.1489 0.256686C52.4653 0.332739 52.7625 0.418307 53.0405 0.513373C53.3281 0.598932 53.5774 0.68924 53.7883 0.784305C53.9224 0.831834 54.028 0.7843 54.1046 0.641707C54.1907 0.489602 54.2387 0.337492 54.2483 0.185388L54.1909 0.0855621H54.5215V3.53647H54.2196C54.162 3.06115 54.0374 2.64284 53.8457 2.28159C53.654 1.92034 53.4144 1.62089 53.1268 1.38322C52.8488 1.13605 52.5277 0.95542 52.1634 0.841341C51.7991 0.717755 51.4107 0.655971 50.9985 0.655971C50.5096 0.655971 50.083 0.789057 49.7188 1.05524C49.3545 1.31191 49.0524 1.6494 48.8128 2.06769C48.5828 2.47647 48.4101 2.93279 48.2951 3.43665C48.1801 3.93099 48.1225 4.41107 48.1225 4.87689C48.1225 5.34271 48.1801 5.8323 48.2951 6.34565C48.4101 6.8495 48.5828 7.31533 48.8128 7.74313C49.0524 8.1614 49.3545 8.5084 49.7188 8.7841C50.083 9.05979 50.5096 9.19764 50.9985 9.19764C51.4011 9.19764 51.7798 9.13108 52.1345 8.99799C52.4988 8.8554 52.8199 8.65575 53.0981 8.39907C53.3855 8.1424 53.6252 7.83343 53.817 7.47218C54.0183 7.11094 54.162 6.70216 54.2483 6.24585H54.536V9.68247H54.2052L54.2771 9.5969C54.258 9.39727 54.2052 9.24992 54.1189 9.15485C54.0326 9.05979 53.9128 9.04078 53.7594 9.09782C53.2225 9.27845 52.6858 9.43055 52.1489 9.55413C51.612 9.66822 51.0657 9.72526 50.5096 9.72526C49.8577 9.72526 49.2347 9.63018 48.6403 9.44004C48.0555 9.24041 47.533 8.9457 47.0728 8.55593C46.6222 8.16616 46.2628 7.67657 45.9944 7.08717C45.7259 6.49777 45.5918 5.80853 45.5918 5.01948C45.5918 4.25896 45.7068 3.56973 45.9368 2.9518C46.1765 2.33388 46.5024 1.80626 46.9147 1.36896C47.3365 0.931659 47.8301 0.594177 48.3959 0.356511C48.9709 0.118848 49.5893 8.98259e-07 50.2508 0Z" fill="black"/>
<path fill-rule="evenodd" clip-rule="evenodd" d="M45.3494 8.31347C45.474 8.55113 45.6178 8.77455 45.7807 8.98369C45.9533 9.18333 46.1739 9.28314 46.4423 9.28314V9.51132H42.3153V9.28314C42.4496 9.28314 42.5837 9.25938 42.7179 9.21185C42.8616 9.15481 42.9337 9.04072 42.9337 8.86961C42.9431 8.81256 42.9096 8.69372 42.8329 8.5131C42.7659 8.32298 42.6796 8.11859 42.5742 7.89995C42.4783 7.68129 42.3729 7.46739 42.2577 7.25824C42.1523 7.04909 42.0708 6.89224 42.0132 6.78766H38.7491C38.7491 6.80669 38.7347 6.84471 38.706 6.90173C38.6869 6.94926 38.6821 6.96353 38.6915 6.94452C38.4808 7.37233 38.313 7.72406 38.1883 7.99975C38.0733 8.27545 38.0157 8.53212 38.0157 8.76979C38.0157 9.11203 38.1835 9.28314 38.5191 9.28314V9.51132H36.3477V9.28314C36.4916 9.28314 36.6162 9.25462 36.7216 9.19758C36.8366 9.13104 36.9421 9.05023 37.0379 8.95515C37.1338 8.8506 37.2153 8.73651 37.2824 8.61293C37.3494 8.48935 37.4118 8.36575 37.4694 8.24217C37.6611 7.82388 37.8672 7.37231 38.0876 6.88748C38.3082 6.39314 38.5286 5.89405 38.7491 5.3902C38.9791 4.87685 39.1997 4.37775 39.4106 3.8929C39.631 3.39857 39.8372 2.94225 40.0288 2.52396L39.9427 2.3671C39.8181 2.11042 39.6934 1.86324 39.5688 1.62559C39.4538 1.38792 39.3292 1.17877 39.1949 0.998142C39.0606 0.817516 38.9073 0.674921 38.7347 0.570348C38.5717 0.456269 38.3848 0.399224 38.1739 0.399224V0.171082H41.3662L45.3494 8.31347ZM39.0799 6.10318H41.6538L40.4172 3.26546H40.3596L39.0799 6.10318Z" fill="black"/>
<path d="M8.32593 2.71081L8.12462 2.69654C8.10536 2.60148 8.06702 2.44936 8.00961 2.24023C7.95201 2.02158 7.87534 1.80292 7.77941 1.58427C7.69311 1.36562 7.59254 1.17549 7.47753 1.01388C7.36252 0.842764 7.24734 0.757195 7.13233 0.757195H3.53742C3.53742 0.928311 3.53264 1.09943 3.52305 1.27055V4.45052H5.72315C5.8382 4.45052 5.94843 4.40773 6.05391 4.32218C6.15929 4.23661 6.25041 4.13204 6.32708 4.00846C6.40376 3.87537 6.46617 3.73752 6.51395 3.59493C6.56192 3.45232 6.58599 3.32874 6.58599 3.22416V2.95324L6.7873 2.98174V6.46115H6.60025C6.5908 6.32807 6.56673 6.18546 6.52839 6.03336C6.49969 5.87175 6.45172 5.7244 6.38468 5.59131C6.31745 5.45821 6.23133 5.34888 6.12577 5.26332C6.02034 5.17777 5.89572 5.135 5.75191 5.13498H3.52305L3.45115 8.92813L6.49969 8.8996C6.69137 8.86157 6.88305 8.83305 7.07491 8.81404C7.27622 8.78552 7.45346 8.70947 7.60699 8.58589C7.76996 8.46229 7.89923 8.26741 7.99516 8.00122C8.10054 7.72554 8.16295 7.32625 8.18203 6.80339H8.36908V9.49852H0V9.28462C0.153381 9.27512 0.301984 9.24658 0.445773 9.19905C0.599154 9.15152 0.733385 9.08498 0.848412 8.99942C0.97305 8.90436 1.06891 8.79027 1.13601 8.65718C1.2127 8.52409 1.25103 8.36723 1.25103 8.18662V1.48446C1.25103 1.1042 1.12162 0.833262 0.862785 0.67165C0.603951 0.500531 0.316356 0.40545 0 0.386437V0.158295H8.32593V2.71081Z" fill="black"/>
<path d="M13.1591 0.384978C13.0919 0.384978 13.0297 0.389718 12.9721 0.399224C12.9241 0.40873 12.8043 0.465777 12.6126 0.570348C12.4209 0.665415 12.4017 0.869811 12.555 1.18353C12.718 1.48774 13.0104 2.0106 13.4323 2.75211C13.8636 3.48412 14.0794 3.86438 14.0794 3.8929H14.1081C15.3159 2.02965 15.9199 1.03145 15.9199 0.898333C15.9199 0.717712 15.8673 0.589365 15.7617 0.513312C15.6563 0.427753 15.5221 0.384978 15.3591 0.384978V0.171082H17.8037V0.384978L16.869 0.655911L14.4244 4.43479C14.8176 5.14777 15.1819 5.79897 15.5173 6.38838C15.8528 6.97778 16.2171 7.58145 16.6101 8.19938C17.0033 8.80781 17.2955 9.14053 17.4874 9.19758C17.6791 9.2451 17.9235 9.26889 18.2208 9.26889V9.49704H13.7199V9.26889H13.9212C14.0075 9.25937 14.1129 9.24511 14.2375 9.2261C14.3622 9.19758 14.4485 9.15956 14.4964 9.11201C14.5539 9.05499 14.5826 8.98367 14.5826 8.89813C14.5539 8.85056 13.9883 7.81908 12.8858 5.80373L12.6989 5.50426H12.6413C12.3826 5.8275 11.9848 6.42641 11.4479 7.30103C10.9206 8.17563 10.6569 8.68422 10.6569 8.82683C10.6569 9.01695 10.7145 9.14055 10.8295 9.19758C10.9542 9.2451 11.1027 9.26889 11.2753 9.26889L11.3903 9.49704H8.81641V9.26889L9.80852 8.82683L12.3105 4.86258C11.8792 4.02599 11.5005 3.3225 11.1745 2.75211C10.8488 2.18171 10.5563 1.72064 10.2974 1.3689C10.0482 1.01716 9.80852 0.765226 9.5785 0.613121C9.34848 0.461017 9.1231 0.38498 8.90271 0.384978V0.171082H13.1591V0.384978Z" fill="black"/>
<path d="M25.783 3.10862H25.4809C25.433 2.65229 25.3659 2.27204 25.2796 1.96781C25.1933 1.6541 25.0639 1.40217 24.8914 1.21204C24.7188 1.02191 24.4983 0.888823 24.2299 0.812772C23.9616 0.736719 23.6212 0.703441 23.2089 0.712947H23.1658C23.1754 0.817518 23.1802 0.941104 23.1802 1.0837V8.18514C23.1802 8.51787 23.2808 8.77928 23.4821 8.96942C23.693 9.15956 23.9423 9.26413 24.2299 9.28314V9.49704H19.729V9.28314C20.0263 9.26413 20.2754 9.15956 20.4767 8.96942C20.678 8.77928 20.7787 8.51787 20.7787 8.18514V3.70752L20.7356 0.712947H20.7211C20.3091 0.703439 19.9687 0.736719 19.7003 0.812772C19.4318 0.888823 19.2162 1.02191 19.0532 1.21204C18.8903 1.39266 18.7656 1.63984 18.6793 1.95356C18.593 2.25777 18.526 2.6428 18.478 3.10862H18.1328V0.171082H25.783V3.10862Z" fill="black"/>
<path fill-rule="evenodd" clip-rule="evenodd" d="M32.2231 0.158295C32.712 0.158295 33.1385 0.243847 33.5028 0.414963C33.8767 0.576576 34.1836 0.795227 34.4233 1.07092C34.6725 1.34661 34.8594 1.66032 34.984 2.01206C35.1087 2.3543 35.1709 2.71081 35.1709 3.08157C35.1709 3.44282 35.0752 3.80407 34.8833 4.16532C34.7012 4.52657 34.4281 4.85454 34.0638 5.14925C33.7089 5.43445 33.2728 5.66736 32.7552 5.84798C32.2375 6.01909 31.6527 6.09514 31.0008 6.07614L33.0139 6.48969H33.0428C33.0524 6.48018 33.0667 6.47542 33.0859 6.47542L36.2782 9.48425L33.2872 9.49852L29.419 6.04763H29.3903V8.20085C29.3903 8.45753 29.4383 8.66194 29.534 8.81404C29.6299 8.95663 29.7401 9.06598 29.8648 9.14203C29.9894 9.20857 30.1092 9.25134 30.2243 9.27037C30.3394 9.27986 30.4113 9.28462 30.44 9.28462V9.49852H26.1836V9.28462C26.2123 9.28462 26.2843 9.27986 26.3993 9.27037C26.5144 9.25134 26.6342 9.20857 26.7588 9.14203C26.8835 9.06598 26.9937 8.95663 27.0896 8.81404C27.195 8.66194 27.2477 8.45753 27.2477 8.20085V1.4702C27.2477 1.21353 27.195 1.01388 27.0896 0.871284C26.9937 0.719178 26.8835 0.609845 26.7588 0.543298C26.6342 0.467248 26.5144 0.419715 26.3993 0.400701C26.2843 0.381687 26.2123 0.372192 26.1836 0.372192V0.158295H32.2231ZM29.3903 5.30611H31.1158C31.4323 5.30611 31.7055 5.24907 31.9355 5.13498C32.1751 5.0114 32.3716 4.8498 32.5252 4.65017C32.6881 4.44102 32.808 4.20334 32.8846 3.93715C32.9613 3.67098 32.9996 3.38578 32.9996 3.08157C32.9996 2.78686 32.9613 2.50641 32.8846 2.24023C32.808 1.96453 32.6881 1.72687 32.5252 1.52724C32.3716 1.31809 32.1751 1.15173 31.9355 1.02815C31.7055 0.90456 31.4323 0.842757 31.1158 0.842757H29.3903V5.30611Z" fill="black"/>
<path d="M62.7808 3.10862H62.479C62.431 2.65229 62.364 2.27204 62.2777 1.96781C62.1914 1.6541 62.0619 1.40217 61.8893 1.21204C61.7169 1.02191 61.4963 0.888823 61.228 0.812772C60.9594 0.73672 60.6192 0.703441 60.207 0.712947H60.1638C60.1734 0.817518 60.1783 0.941104 60.1783 1.0837V8.18514C60.1783 8.51787 60.2788 8.77928 60.4801 8.96942C60.6911 9.15956 60.9403 9.26413 61.228 9.28314V9.49704H56.7271V9.28314C57.0243 9.26413 57.2734 9.15956 57.4747 8.96942C57.676 8.77928 57.7768 8.51785 57.7768 8.18514V3.70752L57.7336 0.712947H57.7192C57.3071 0.703441 56.9667 0.736719 56.6984 0.812772C56.4298 0.888823 56.2143 1.02191 56.0513 1.21204C55.8883 1.39266 55.7637 1.63984 55.6774 1.95356C55.5911 2.25777 55.524 2.6428 55.4761 3.10862H55.1309V0.171082H62.7808V3.10862Z" fill="black"/>
<path d="M67.6812 0.386437C67.3745 0.40545 67.1204 0.51003 66.9191 0.700159C66.7274 0.890291 66.6315 1.15173 66.6315 1.48446V8.18662C66.6315 8.51935 66.7274 8.78076 66.9191 8.9709C67.1204 9.15152 67.3745 9.25134 67.6812 9.27037V9.49852H63.3242V9.27037C63.6118 9.25134 63.8563 9.15152 64.0576 8.9709C64.2589 8.78076 64.3595 8.51935 64.3595 8.18662V1.48446C64.3595 1.15173 64.2589 0.890291 64.0576 0.700159C63.8563 0.510028 63.6118 0.40545 63.3242 0.386437V0.158295H67.6812V0.386437Z" fill="black"/>
<path d="M85.2845 7.7294H85.3421V1.49782C85.3421 1.16509 85.2365 0.903661 85.0256 0.713531C84.8148 0.513893 84.5655 0.404575 84.2779 0.385562V0.171648H86.9813V0.385562C86.6746 0.404575 86.4205 0.513894 86.2192 0.713531C86.0179 0.903661 85.9171 1.16509 85.9171 1.49782V8.18573C85.9171 8.53746 86.0179 8.80365 86.2192 8.98428C86.4205 9.1649 86.6746 9.26472 86.9813 9.28373V9.49763H83.5877L79.0581 2.08248H79.015V8.18573C79.015 8.51844 79.1155 8.77987 79.3168 8.97001C79.5278 9.16014 79.7819 9.26472 80.0789 9.28373V9.49763H77.3613V9.28373C77.6584 9.26472 77.9077 9.16014 78.109 8.97001C78.3199 8.77987 78.4253 8.51846 78.4253 8.18573V1.52634C78.4253 1.19362 78.3199 0.932188 78.109 0.742057C77.9077 0.542418 77.6584 0.433085 77.3613 0.414071L77.39 0.143139L80.6973 0.128876L85.2845 7.7294Z" fill="black"/>
<path fill-rule="evenodd" clip-rule="evenodd" d="M72.8346 0.0715942C73.4482 0.0715946 74.0377 0.171415 74.6033 0.371053C75.1689 0.570691 75.6674 0.865396 76.0988 1.25517C76.5303 1.64493 76.8753 2.12501 77.1342 2.6954C77.3929 3.2563 77.5224 3.90751 77.5224 4.64903C77.5224 5.4761 77.3642 6.19384 77.0479 6.80227C76.7412 7.40118 76.3338 7.90027 75.8256 8.29955C75.3271 8.68932 74.7615 8.98401 74.1288 9.18366C73.4962 9.37378 72.8585 9.46886 72.2163 9.46886C71.5836 9.46886 70.9845 9.36429 70.4189 9.15514C69.8533 8.946 69.3548 8.64655 68.9234 8.25678C68.5016 7.85749 68.166 7.37266 67.9167 6.80227C67.6674 6.22236 67.543 5.56166 67.543 4.82014C67.543 4.01208 67.7011 3.31335 68.0175 2.72393C68.3338 2.12501 68.7412 1.63067 69.2398 1.2409C69.7478 0.841626 70.3134 0.546921 70.9366 0.356789C71.5692 0.166658 72.202 0.0715942 72.8346 0.0715942ZM72.13 0.81311C71.689 0.81311 71.3295 0.917686 71.0516 1.12683C70.7736 1.33598 70.553 1.60691 70.39 1.93965C70.2367 2.27237 70.1313 2.64314 70.0737 3.05191C70.0163 3.4512 69.9874 3.85046 69.9874 4.24973C69.9874 4.72506 70.0402 5.22416 70.1456 5.74703C70.2511 6.26989 70.4141 6.74996 70.6345 7.18726C70.8551 7.62458 71.1427 7.99057 71.4973 8.28528C71.852 8.57048 72.2835 8.71308 72.7915 8.71308C73.2228 8.71308 73.5825 8.62276 73.8699 8.44214C74.1575 8.26151 74.3877 8.01909 74.5601 7.71489C74.7327 7.41068 74.8526 7.06844 74.9198 6.68818C74.9868 6.29841 75.0204 5.89439 75.0204 5.4761C75.0204 4.98176 74.9724 4.45889 74.8766 3.90751C74.7807 3.35612 74.6177 2.85226 74.3877 2.39596C74.1672 1.93963 73.8699 1.56413 73.4962 1.26943C73.1319 0.96522 72.6765 0.813112 72.13 0.81311Z" fill="black"/>
</svg>
