<svg width="114" height="33" viewBox="0 0 114 33" fill="none" xmlns="http://www.w3.org/2000/svg">
<g clip-path="url(#clip0_495_1352)">
<path d="M40.507 6.07812C38.8449 6.07812 37.4896 6.56399 36.4923 7.56127C35.495 8.55856 35.0092 9.86268 35.0092 11.5248V12.8801H32.6055V16.1021H35.0092V26.1005H38.717V16.1021H41.7856V12.8801H38.717V11.4225C38.717 10.1695 39.6376 9.32568 40.9417 9.32568C41.223 9.32568 41.5043 9.35125 41.8112 9.37682V6.15484C41.4275 6.1037 40.9928 6.07812 40.507 6.07812Z" fill="#22282B"/>
<path d="M46.7139 6.23145H42.9805V26.1004H46.7139V6.23145Z" fill="#22282B"/>
<path d="M51.238 6.30853C49.3713 6.20625 48.2206 8.86565 49.6526 10.1442C50.4964 10.9881 51.9796 10.9881 52.8234 10.1442C53.2582 9.70949 53.4883 9.17249 53.4883 8.55882C53.4883 7.30579 52.491 6.30853 51.238 6.30853ZM53.1047 12.8804H49.3713V26.1007H53.1047V12.8804Z" fill="#22282B"/>
<path d="M61.416 12.624C59.5493 12.624 58.0151 13.2633 56.8132 14.5163C55.637 15.7693 55.0488 17.4314 55.0488 19.5027C55.0488 21.574 55.637 23.2361 56.8132 24.4891C58.0151 25.7421 59.5493 26.3814 61.416 26.3814C63.0782 26.3814 64.3056 25.9211 65.1495 24.975V32.6208H68.8574V12.8798H65.3539V14.2606C64.5358 13.161 63.2317 12.624 61.416 12.624ZM62.0298 15.8204C63.8965 15.8204 65.1495 17.1246 65.1495 19.1958V19.8096C65.1495 21.8809 63.8965 23.185 62.0298 23.185C60.1119 23.185 58.8334 21.8297 58.8334 19.5027C58.8334 17.1758 60.1119 15.8204 62.0298 15.8204Z" fill="#22282B"/>
<path d="M78.961 12.624C77.1708 12.624 75.8666 13.161 75.0485 14.2606V12.8798H71.5195V32.6208H75.2533V24.975C76.0969 25.9211 77.3502 26.3814 78.961 26.3814C80.853 26.3814 82.3875 25.7421 83.5638 24.4891C84.7656 23.2361 85.3534 21.574 85.3534 19.5027C85.3534 17.4314 84.7656 15.7693 83.5638 14.5163C82.3875 13.2633 80.853 12.624 78.961 12.624ZM78.3725 15.8204C80.2906 15.8204 81.5694 17.1758 81.5694 19.5027C81.5694 21.8297 80.2906 23.185 78.3725 23.185C76.506 23.185 75.2533 21.8809 75.2533 19.8096V19.1958C75.2533 17.1246 76.506 15.8204 78.3725 15.8204Z" fill="#22282B"/>
<path d="M92.4414 12.624C90.8306 12.624 89.501 13.1099 88.4526 14.0816C87.4296 15.0277 86.9181 16.1273 86.9181 17.3547L90.6519 17.5082C90.6519 16.562 91.2912 15.7693 92.493 15.7693C93.6439 15.7693 94.2062 16.4597 94.2062 17.815V18.3264L91.8536 18.4543C88.3247 18.6077 86.5605 19.9374 86.5605 22.469C86.5605 25.0005 88.2223 26.3814 90.9585 26.3814C92.3397 26.3814 93.4644 25.9211 94.3341 25.0261V26.1001H97.9394V17.9429C97.9394 14.4651 96.0219 12.624 92.4414 12.624ZM94.2062 21.3439C94.2062 22.6991 93.2341 23.4918 91.8282 23.4918C90.8052 23.4918 90.2937 23.0827 90.2937 22.29C90.2937 21.4206 90.9331 20.9603 92.2118 20.9092L94.2062 20.7813V21.3439Z" fill="#22282B"/>
<path d="M112.918 12.8799H108.775L105.757 20.7558L102.714 12.8799H98.5977L103.763 24.9239L100.387 32.6209H104.453L112.918 12.8799Z" fill="#22282B"/>
<path fill-rule="evenodd" clip-rule="evenodd" d="M0 2.5878C0 0.811478 1.35233 -0.312568 3.02074 0.0772209L21.1682 4.31701C22.8365 4.70678 24.189 5.97502 24.189 7.15279V25.0548C24.189 26.2311 22.8367 27.5007 21.1682 27.8906L3.02074 32.1303C1.35243 32.5201 0 31.3982 0 29.6197V2.5878ZM5.14016 9.15526C5.14016 7.72098 6.31824 6.72767 7.76861 6.93619L15.6565 8.07022C17.1082 8.27893 18.2849 9.37258 18.2849 10.5136C18.2849 11.6543 17.1069 12.5049 15.6565 12.4136L7.76861 11.9175C6.31696 11.8262 5.14016 10.5898 5.14016 9.15526ZM5.00027 16.1038C5.00027 14.6192 6.21971 13.4649 7.72098 13.5257L15.8858 13.8558C17.3885 13.9166 18.6066 14.9228 18.6066 16.1038C18.6066 17.2845 17.3871 18.291 15.8858 18.3517L7.72098 18.6819C6.21838 18.7427 5.00027 17.5887 5.00027 16.1038ZM8.16378 25.797C9.83371 25.5419 11.1874 24.1196 11.1874 22.6201C11.1874 21.1205 9.83371 19.9901 8.16378 20.0951C6.49389 20.2002 5.14016 21.6225 5.14016 23.2721C5.14016 24.9217 6.49389 26.0521 8.16378 25.797Z" fill="url(#paint0_linear_495_1352)"/>
</g>
<defs>
<linearGradient id="paint0_linear_495_1352" x1="-21.3647" y1="-17.8292" x2="-22.1376" y2="72.4308" gradientUnits="userSpaceOnUse">
<stop stop-color="#1400FF"/>
<stop offset="1" stop-color="#FC199B"/>
</linearGradient>
<clipPath id="clip0_495_1352">
<rect width="113.521" height="32.6209" fill="white"/>
</clipPath>
</defs>
</svg>
