<svg width="124" height="26" viewBox="0 0 124 26" fill="none" xmlns="http://www.w3.org/2000/svg">
<g clip-path="url(#clip0_495_1362)">
<path d="M0 1.88192C0.00117066 1.6954 0.0760878 1.51692 0.208395 1.38544C0.340703 1.25396 0.519654 1.18017 0.706179 1.18018H2.82472C3.01201 1.18018 3.19163 1.25458 3.32406 1.38701C3.45649 1.51944 3.53089 1.69906 3.53089 1.88635V14.5917C3.53089 14.779 3.6053 14.9586 3.73773 15.091C3.87016 15.2234 4.04978 15.2978 4.23707 15.2978H13.4189C13.6062 15.2978 13.7858 15.2234 13.9182 15.091C14.0507 14.9586 14.1251 14.779 14.1251 14.5917V12.4761C14.1251 12.2888 14.0507 12.1092 13.9182 11.9767C13.7858 11.8443 13.6062 11.7699 13.4189 11.7699H9.1818C8.61993 11.7699 8.08107 11.5467 7.68377 11.1494C7.28647 10.7521 7.06327 10.2132 7.06327 9.65137V3.29871C7.06327 2.73684 7.28647 2.19799 7.68377 1.80068C8.08107 1.40338 8.61993 1.18018 9.1818 1.18018H15.5345C16.0963 1.18018 16.6352 1.40338 17.0325 1.80068C17.4298 2.19799 17.653 2.73684 17.653 3.29871V16.7176C17.653 17.2795 17.4298 17.8183 17.0325 18.2156C16.6352 18.6129 16.0963 18.8361 15.5345 18.8361H2.11854C1.55667 18.8361 1.01781 18.6129 0.620505 18.2156C0.223202 17.8183 0 17.2795 0 16.7176V1.88192ZM14.1251 5.41282C14.1251 5.22553 14.0507 5.04591 13.9182 4.91347C13.7858 4.78104 13.6062 4.70664 13.4189 4.70664H10.5942V7.53283C10.5942 7.72012 10.6686 7.89974 10.801 8.03218C10.9334 8.16461 11.113 8.23901 11.3003 8.23901H14.1251V5.41282Z" fill="url(#paint0_linear_495_1362)"/>
<path d="M25.2012 -0.00146484V19.6327H28.5991V-0.00146484H25.2012ZM45.3287 13.933C45.8621 8.2304 42.965 5.36432 38.3349 5.36432C33.8408 5.36432 30.9762 8.39734 30.9762 12.6108C30.9762 17.0429 33.8127 19.9976 38.5875 19.9976C40.6943 19.9976 43.0817 19.2678 44.5428 17.7505L42.3519 15.5877C41.5659 16.4017 39.9083 16.8804 38.6437 16.8804C36.2282 16.8804 34.739 15.6438 34.5145 13.9256L45.3287 13.933ZM34.5706 11.0965C35.0759 9.29853 36.5931 8.40029 38.4472 8.40029C40.4136 8.40029 41.8171 9.29853 42.0431 11.0965H34.5706ZM61.5915 19.6341V12.3596C61.5915 8.00584 58.9796 5.56376 55.7205 5.56376C53.9787 5.56376 52.5752 6.2655 51.1702 7.64241L50.9472 5.76025H47.8846V19.6356H51.2825V12.5561C51.2825 10.4494 52.7156 8.67952 54.8282 8.67952C57.0191 8.67952 58.1715 10.281 58.1715 12.3877V19.6341H61.5915ZM71.2491 8.65145C73.4119 8.65145 75.266 10.2765 75.266 12.6965C75.266 15.1962 73.4119 16.7696 71.2491 16.7696C69.0581 16.7696 67.3163 15.112 67.3163 12.6965C67.3178 10.1923 69.0596 8.65145 71.2491 8.65145ZM75.492 -0.00146484V7.66752C74.678 6.23448 72.4029 5.45148 70.9418 5.45148C66.8967 5.45148 63.8918 7.92311 63.8918 12.6979C63.8918 17.2482 66.9529 19.9444 71.026 19.9444C72.7116 19.9444 74.4239 19.383 75.492 17.7284L75.7166 19.6386H78.9195V-0.00146484H75.492ZM92.8555 7.21988C91.254 5.81491 89.626 5.39386 87.4616 5.39386C84.9339 5.39386 81.6187 6.51813 81.6187 9.71958C81.6187 12.8649 84.7374 13.8207 87.3493 14.0172C89.3157 14.1295 90.1017 14.5225 90.1017 15.4783C90.1017 16.4889 88.8932 17.164 87.602 17.1359C86.0567 17.1079 83.8096 16.2938 82.8271 15.1976L81.1474 17.6397C83.1699 19.7464 85.3608 20.1113 87.5517 20.1113C91.5125 20.1113 93.507 18.0046 93.507 15.5611C93.507 11.881 90.1918 11.2915 87.5798 11.129C85.807 11.0167 84.9959 10.5114 84.9959 9.61173C84.9959 8.74156 85.8941 8.23483 87.5237 8.23483C88.8444 8.23483 89.9672 8.5436 90.9497 9.47138L92.8555 7.21988ZM102.383 16.6573C100.052 16.6573 98.4502 14.8844 98.4502 12.7245C98.4502 10.5646 99.9113 8.79179 102.383 8.79179C104.855 8.79179 106.316 10.5646 106.316 12.7245C106.316 14.8844 104.714 16.6573 102.383 16.6573ZM110.052 25.421V5.78684H106.853L106.629 7.69707C105.562 6.15175 103.708 5.48102 102.135 5.48102C97.8652 5.48102 95.0287 8.6544 95.0287 12.7275C95.0287 16.7725 97.5845 19.974 102.022 19.974C103.484 19.974 105.646 19.5307 106.629 18.0076V25.4225L110.052 25.421ZM113.058 5.78684V19.6341H116.486V12.3316C116.486 9.77572 118.143 8.81986 119.941 8.81986C121.066 8.81986 121.714 9.12863 122.413 9.7181L123.958 6.74122C123.2 5.98333 121.824 5.42046 120.391 5.42046C118.986 5.42046 117.554 5.67308 116.486 7.38682L116.233 5.78536L113.058 5.78684Z" fill="#213F7D"/>
</g>
<defs>
<linearGradient id="paint0_linear_495_1362" x1="-1.47293" y1="26.5967" x2="16.9778" y2="-4.03639" gradientUnits="userSpaceOnUse">
<stop stop-color="#213F7D"/>
<stop offset="1" stop-color="#39CDCC"/>
</linearGradient>
<clipPath id="clip0_495_1362">
<rect width="123.96" height="25.421" fill="white"/>
</clipPath>
</defs>
</svg>
