<svg width="105" height="29" viewBox="0 0 105 29" fill="none" xmlns="http://www.w3.org/2000/svg">
<g clip-path="url(#clip0_495_1335)">
<path fill-rule="evenodd" clip-rule="evenodd" d="M82.1993 2.20865C82.1993 1.39339 81.4749 0.668945 80.5688 0.668945H78.3015C77.3954 0.668945 76.6699 1.39339 76.6699 2.20865L76.7618 26.5047C76.76 26.7074 76.7986 26.9084 76.8753 27.096C76.952 27.2837 77.0654 27.4541 77.2087 27.5975C77.3521 27.7408 77.5225 27.8542 77.7101 27.9309C77.8978 28.0076 78.0988 28.0462 78.3015 28.0444H80.5688C81.4749 28.0444 82.1993 27.32 82.1993 26.5047V2.20865Z" fill="#005695"/>
<path fill-rule="evenodd" clip-rule="evenodd" d="M85.0996 2.93425V4.01883C85.0996 4.56164 85.4629 4.9249 86.0057 4.9249H101.96C102.317 4.91566 102.657 4.76972 102.91 4.5172C103.162 4.26469 103.308 3.92487 103.317 3.56787V1.66491C103.317 0.939421 102.683 0.214977 101.96 0.307881C101.96 0.307881 86.5495 1.84758 86.0057 1.9384C85.4618 1.9384 85.0996 2.39144 85.0996 2.93529V2.93425Z" fill="#005695"/>
<path fill-rule="evenodd" clip-rule="evenodd" d="M72.1374 28.0446C68.1487 28.0446 65.7009 25.0539 65.7009 21.6999V11.9992H64.5223C63.9785 11.9992 63.4336 11.4554 63.4336 10.9115V9.27891C63.4385 8.99206 63.5549 8.71838 63.7581 8.51591C63.9614 8.31343 64.2355 8.19809 64.5223 8.19433H65.7009V2.20878C65.6991 2.00594 65.7377 1.80478 65.8145 1.61703C65.8913 1.42928 66.0047 1.2587 66.1481 1.11527C66.2915 0.971837 66.4621 0.858415 66.6499 0.781626C66.8376 0.704837 67.0388 0.666219 67.2416 0.66803H69.5079C70.3231 0.66803 70.9578 1.39248 70.9578 2.20878V8.19433H74.4934C74.6372 8.18874 74.7807 8.21299 74.9148 8.26553C75.0488 8.31807 75.1706 8.39778 75.2723 8.49964C75.3741 8.6015 75.4537 8.72332 75.5061 8.85743C75.5585 8.99154 75.5826 9.13504 75.5769 9.27891V10.9084C75.5731 11.1957 75.4573 11.4702 75.2541 11.6733C75.051 11.8765 74.7765 11.9923 74.4892 11.9961H70.9578V20.9734C70.9578 22.6947 72.0465 23.9651 73.9495 23.9651H74.3128C74.4689 23.96 74.6244 23.987 74.7697 24.0445C74.915 24.1019 75.047 24.1885 75.1574 24.299C75.2679 24.4095 75.3545 24.5414 75.412 24.6867C75.4694 24.832 75.4964 24.9875 75.4913 25.1436V26.866C75.4859 27.1769 75.3601 27.4736 75.1402 27.6934C74.9203 27.9133 74.6237 28.0392 74.3128 28.0446H72.1374Z" fill="#005695"/>
<path fill-rule="evenodd" clip-rule="evenodd" d="M44.9402 17.7977C44.9402 12.6316 41.8587 7.46338 34.8783 7.46338C28.4418 7.46338 24.9062 12.5387 24.9062 17.7977C24.9062 23.4179 28.7132 28.4044 34.9681 28.4044C39.2292 28.4044 43.3994 26.229 44.2147 22.5128C44.3055 22.0598 43.9433 21.3343 43.3076 21.3343H40.2261C39.9693 21.3316 39.7164 21.3973 39.4933 21.5246C39.2702 21.6519 39.085 21.8363 38.9567 22.0588C38.0496 23.3302 36.7813 23.9659 34.9692 23.9659C32.2499 23.9659 30.4367 21.8782 30.255 19.5242H43.2157C44.3953 19.5242 44.9392 18.8896 44.9392 17.8008L44.9402 17.7977ZM30.3448 15.6264C30.5264 13.3602 32.5202 11.6378 34.8783 11.6378C37.3262 11.6378 39.32 13.3602 39.5925 15.6264H30.3448Z" fill="#005695"/>
<path fill-rule="evenodd" clip-rule="evenodd" d="M103.864 17.7977C103.864 12.6316 100.783 7.46338 93.8011 7.46338C87.3646 7.46338 83.8301 12.5387 83.8301 17.7977C83.8301 23.4179 87.6381 28.4044 93.893 28.4044C98.153 28.4044 102.322 26.229 103.139 22.5128C103.23 22.0598 102.866 21.3343 102.232 21.3343H99.1509C98.894 21.3316 98.6409 21.3972 98.4176 21.5245C98.1944 21.6518 98.009 21.8362 97.8806 22.0588C96.9745 23.3302 95.7051 23.9659 93.8011 23.9659C91.1727 23.9659 89.3595 21.8782 89.1778 19.5242H102.142C103.32 19.5242 103.864 18.8896 103.864 17.8008V17.7977ZM89.2697 15.6264C89.4503 13.3602 91.442 11.6389 93.8011 11.6389C96.249 11.6389 98.2438 13.3612 98.4255 15.6275L89.2697 15.6264Z" fill="#005695"/>
<path fill-rule="evenodd" clip-rule="evenodd" d="M61.3507 0.939457H19.4686C19.2425 0.939457 19.0186 0.984017 18.8097 1.07059C18.6007 1.15716 18.4109 1.28404 18.2511 1.444C18.0912 1.60395 17.9645 1.79383 17.878 2.00279C17.7916 2.21176 17.7471 2.4357 17.7473 2.66184L17.8371 19.1612C17.8371 19.1612 8.85978 2.84348 8.40883 2.02717C8.13161 1.55461 7.73481 1.16341 7.25836 0.892934C6.78191 0.622458 6.24262 0.482249 5.69477 0.486418H2.25C2.02333 0.485731 1.79877 0.529816 1.58918 0.616144C1.3796 0.702472 1.18913 0.829344 1.02871 0.989475C0.86829 1.14961 0.741073 1.33984 0.654365 1.54927C0.567656 1.75869 0.523163 1.98318 0.523439 2.20985V26.3232C0.523439 27.3201 1.25415 28.0456 2.24582 28.0456H4.42125C5.41814 28.0456 6.14363 27.3201 6.14363 26.3232L6.05595 9.46265C6.05595 9.46265 15.1209 25.8702 15.575 26.5049C16.028 27.4109 16.932 28.0456 18.2035 28.0456H21.3758C22.3727 28.0456 23.0982 27.3201 23.0982 26.3232V5.02099H61.3507C61.6616 5.01536 61.9581 4.88939 62.1779 4.66958C62.3977 4.44977 62.5237 4.15326 62.5293 3.84246V2.11903C62.5242 1.80813 62.3986 1.51137 62.1789 1.29131C61.9592 1.07125 61.6627 0.945099 61.3518 0.939457H61.3507Z" fill="#005695"/>
<path fill-rule="evenodd" clip-rule="evenodd" d="M54.5495 11.4551C56.3627 11.4551 57.7228 12.0897 58.2667 13.2672C58.4483 13.8121 58.9014 13.9029 59.536 13.9029H62.0747C62.438 13.9029 62.9808 13.5397 62.9808 12.9969C62.9808 10.096 59.4452 7.46436 54.5505 7.46436C49.4794 7.46331 46.1202 9.91327 46.1202 13.7265C46.1202 16.7183 48.4773 18.4417 51.2874 19.259C52.6444 19.5315 54.9127 20.0743 56.0005 20.4376C57.0882 20.71 58.1759 21.0722 58.1759 22.0691C58.1759 23.7007 56.5443 24.1569 54.6403 24.1569C52.9179 24.1569 51.1955 23.4262 50.7425 22.1631C50.4711 21.4324 49.9262 21.3478 49.2017 21.3478H46.661C46.2079 21.3478 45.6641 21.7998 45.6641 22.3437V22.7069C45.6641 25.517 49.4721 28.4179 54.729 28.4179C58.3554 28.4179 63.5226 26.8772 63.5226 21.9804C63.5226 19.0795 61.6186 17.0867 58.4462 16.2715C57.2667 15.999 54.3668 15.1827 53.7321 15.0909C52.5526 14.7286 51.4659 14.3664 51.4659 13.4603C51.4659 11.9196 52.8229 11.4655 54.5474 11.4655L54.5495 11.4551Z" fill="#005695"/>
</g>
<defs>
<clipPath id="clip0_495_1335">
<rect width="104.387" height="28.7064" fill="white"/>
</clipPath>
</defs>
</svg>
