<svg width="96" height="19" viewBox="0 0 96 19" fill="none" xmlns="http://www.w3.org/2000/svg">
<g clip-path="url(#clip0_495_1327)">
<path d="M38.6793 8.20607H39.184H38.6793ZM11.3789 8.29725H11.2871L11.8377 8.47961L11.3789 8.29725ZM75.3857 18.7831L76.2574 16.23C74.7433 16.9595 73.275 17.7801 71.9444 18.7831H75.3857Z" fill="#0097CD"/>
<path d="M68.7315 11.7167L67.9056 14.0875C67.7699 14.6742 67.4367 15.1973 66.9611 15.5703C66.4856 15.9433 65.8962 16.144 65.2903 16.139C63.0879 16.0935 64.0974 13.7227 64.0974 13.7227L64.3268 12.9933C60.6336 14.0178 57.2577 15.9458 54.5078 18.6009C57.1231 18.0538 58.1785 17.0964 59.0502 16.0023C59.2338 15.7743 59.3714 15.5464 59.4632 15.2728C59.922 18.6465 64.6021 18.7833 64.6021 18.7833C69.2821 18.8289 70.888 17.0053 71.7139 15.5464L71.9433 15.1816L71.0716 17.6891C72.861 16.5494 74.7881 15.592 76.7611 14.8169L78.367 10.1667C76.8069 10.3034 71.2092 10.8961 68.7315 11.7167ZM86.1671 11.6256L86.6259 10.0299L86.7177 9.75635L81.6247 9.89312L81.487 10.6682L81.2117 11.6256L80.707 13.4492C82.4047 12.9933 84.1941 12.6742 85.9377 12.4462L86.1671 11.6256Z" fill="#FFB600"/>
<path d="M79.3789 18.418H84.3802L85.7566 13.2207C83.9672 13.5854 82.1778 13.9957 80.3883 14.5428L79.3789 18.418Z" fill="#0097CD"/>
<path d="M94.1966 12.1726L94.7013 10.5769C93.4166 10.4402 91.7189 10.349 89.7 10.2578V10.3034L89.1953 12.1726C90.8471 12.0814 92.5448 12.0814 94.1966 12.1726Z" fill="#FFB600"/>
<path d="M87.4988 18.4183H92.5001L94.1519 12.3547C92.8671 12.4003 91.0777 12.4915 89.013 12.7651L87.4988 18.4183ZM91.5365 4.7411C90.16 4.64992 87.3153 4.83229 86.2141 7.06623C86.2141 7.06623 86.6729 4.7411 82.3599 4.7411C81.4423 4.7411 80.1575 4.69551 78.9187 6.20001L78.2305 4.87788H75.2939L74.1928 7.93245L73.8257 9.02663C73.8257 5.78969 71.0268 4.7867 68.5033 4.83229C64.695 4.83229 62.6761 6.33678 61.6208 8.02363L61.1161 8.98104C60.9785 5.88087 57.8125 4.92347 55.3348 4.92347C52.1689 4.92347 50.2418 6.01764 49.0948 7.29418L49.4159 6.01764L46.8465 6.06323L47.9018 2.05125L42.3041 3.37338L41.4782 6.01764H37.6699L38.1746 4.2852C38.5876 3.14543 39.184 1.18503 40.9735 1.96007L41.7535 0.364398C41.7535 0.364398 38.0828 -0.638597 35.7428 0.50117C34.4122 1.09385 33.3569 1.96007 32.1639 6.01764H29.9157L29.6404 7.24859C28.7686 5.47055 26.6121 4.92347 24.685 4.92347C20.8767 4.92347 18.8579 6.42796 17.8484 8.11481C17.0684 9.52813 16.472 11.0326 16.059 12.5827V12.4459C15.9672 12.1268 15.8755 11.8077 15.6919 11.5341C15.0037 10.1664 13.3978 9.1634 11.8378 8.47954C11.3105 8.28806 10.7746 8.12072 10.2319 7.97804C6.3777 7.02064 6.51535 5.65292 6.88242 4.7867C7.2036 3.87488 8.21302 2.96307 10.3236 3.19102C12.8931 3.41897 12.0672 6.42796 12.0672 6.42796H17.1602C17.2979 5.7441 17.3437 5.01465 17.3896 4.33079C17.252 0.729124 12.8013 0.136445 10.9201 0.0452634C1.46822 -0.410644 1.00939 5.33378 1.23881 6.47355C1.42234 7.15741 1.74352 7.79568 2.24823 8.29718C3.55628 9.63175 5.23258 10.5518 7.06595 10.9414C10.9201 11.8988 10.7825 13.221 10.4613 14.1328C10.0942 14.999 9.0848 15.9108 6.97418 15.7285C6.70247 15.718 6.43586 15.6519 6.19109 15.5342C5.94632 15.4165 5.72867 15.2498 5.55181 15.0446C4.81768 14.0872 4.86356 12.4915 4.86356 12.4915H-3.2112e-05C-3.2112e-05 12.4915 -0.825926 19.2845 9.54363 18.783C13.306 18.4183 14.9578 16.777 15.6461 15.227C15.9214 18.7374 20.785 18.9198 20.785 18.9198C25.465 18.9654 27.0709 17.1418 27.8968 15.6829C28.5392 14.5887 29.5486 11.5797 29.5486 11.5797C29.9616 10.4855 30.0992 9.34576 29.9157 8.206H31.6592L28.4933 18.8742H33.9534L37.1193 8.206H40.7899L39.0923 14.3607C38.1746 17.9168 40.5605 18.783 41.937 18.8742C44.8276 19.1022 46.6171 18.0992 46.6171 18.0992L46.7547 16.6403C48.0395 18.7374 51.2971 18.8742 51.4348 18.9198C52.0313 18.2359 54.4172 15.7741 59.2808 13.4945H55.0137L54.7843 14.224C54.6392 14.8144 54.2971 15.3385 53.8139 15.7111C53.3306 16.0836 52.7346 16.2826 52.123 16.2755C50.4254 16.2755 51.2971 13.8592 51.2971 13.8592L52.8572 9.71049C53.7289 7.65891 54.6466 7.47655 54.9678 7.47655C57.2619 7.47655 56.1607 10.1664 56.1607 10.1664L56.1149 10.3488H60.5655C60.1984 11.3062 59.9231 12.3092 59.6479 13.2666C61.3455 12.4915 63.135 11.8533 64.9703 11.3062L65.6126 9.52813C66.3468 7.47655 67.7691 7.29418 68.1362 7.33977C70.3845 7.43095 69.2833 10.0752 69.2833 10.0752L69.2374 10.2576C72.3116 9.6649 75.4316 9.30017 78.5975 9.25458C78.9646 8.52513 79.6987 7.61332 81.0293 7.84127C81.4882 7.93245 81.7635 8.38836 81.7176 9.20899H82.6352C83.9658 9.20899 85.3882 9.30017 86.8565 9.39135C87.1776 8.70749 87.8659 7.7045 88.9671 7.65891C89.5636 7.65891 90.16 7.88686 89.793 9.71049L94.7024 10.3488L95.1154 8.79868C95.1154 8.79868 96.2625 5.15142 91.5365 4.7411ZM25.5109 10.212L24.0885 14.224C23.9438 14.8022 23.6068 15.315 23.1321 15.6791C22.6574 16.0432 22.0728 16.2373 21.4732 16.23C19.2708 16.23 20.2802 13.8137 20.2802 13.8137L21.8403 9.6649C22.5285 7.61332 23.9968 7.43095 24.3179 7.47655C26.5662 7.56773 25.5109 10.212 25.5109 10.212ZM48.4524 8.25159C47.6724 9.57372 46.9841 11.6709 46.4794 13.4945C46.2041 14.4519 46.25 15.4549 46.6171 16.3667C43.6806 17.0962 44.4606 14.4975 44.4606 14.4975L46.2041 8.25159L48.4524 8.206V8.25159Z" fill="#0097CD"/>
</g>
<defs>
<clipPath id="clip0_495_1327">
<rect width="95.2531" height="18.9201" fill="white"/>
</clipPath>
</defs>
</svg>
