<svg width="131" height="39" viewBox="0 0 131 39" fill="none" xmlns="http://www.w3.org/2000/svg">
<path d="M13.1694 6.08401C10.874 6.53945 8.76766 7.62853 7.07092 9.23988C5.96203 10.2955 5.27476 11.2064 4.62048 12.4733C3.61143 14.4291 3.23438 16.0066 3.23438 18.2401C3.23438 20.4735 3.61143 22.0515 4.62048 24.0069C5.27476 25.2737 5.96203 26.1846 7.07092 27.2403C9.38811 29.4515 12.2267 30.574 15.4866 30.574C17.6598 30.574 19.2897 30.1961 21.0859 29.2959C21.9839 28.8405 23.1927 28.0625 23.1927 27.9292C23.1927 27.8847 22.5161 27.1735 21.696 26.3513L20.1989 24.8513L19.5335 25.2181C18.2918 25.907 17.3937 26.1516 15.9189 26.2069C14.7993 26.2514 14.4334 26.2292 13.6458 26.0291C10.0201 25.1178 7.55853 21.9735 7.55853 18.2401C7.55853 13.7732 11.0844 10.2399 15.5418 10.2399C21.4072 10.2399 25.2326 16.2624 22.8045 21.6624L22.4938 22.3625L23.9798 23.8625C24.7892 24.6847 25.5098 25.3513 25.5763 25.3513C25.8201 25.3513 26.818 23.4846 27.2507 22.2066C27.6719 20.9731 27.8493 19.7731 27.8493 18.2397C27.8493 16.0062 27.4723 14.4283 26.4632 12.4729C25.8089 11.206 25.1217 10.2951 24.0128 9.23947C22.2942 7.59512 20.1878 6.51717 17.8368 6.07288C16.7506 5.86166 14.2226 5.8728 13.1694 6.08401ZM57.231 17.5177V25.6846H60.2248V9.35085H57.231V17.5177ZM103.512 9.51751C99.3761 10.4177 96.4265 14.4733 96.9257 18.54C97.1806 20.5622 97.9013 22.018 99.3538 23.4623C100.74 24.829 101.948 25.4845 103.8 25.8624C105.829 26.2737 108.357 25.7403 110.043 24.5514L110.353 24.3291L110.962 24.8736C112.082 25.8402 111.95 25.829 112.637 25.0737C113.734 23.8625 113.723 23.9739 112.881 23.207L112.148 22.5514L112.626 21.707C114.51 18.3956 113.968 14.5067 111.229 11.7955C110.02 10.5843 108.678 9.86198 107.037 9.51751C106.118 9.31744 104.41 9.31744 103.512 9.51751ZM106.783 12.3396C109 13.0286 110.674 15.3396 110.674 17.7067C110.674 18.3845 110.408 19.4513 110.087 20.0845L109.843 20.5511L108.745 19.5957L107.647 18.6402L107.16 19.1848C106.883 19.4958 106.516 19.9183 106.339 20.1513L106.017 20.5515L107.082 21.4739L108.135 22.3959L107.636 22.6517C106.96 22.9962 105.984 23.2408 105.296 23.2408C102.447 23.2408 99.9186 20.5738 99.9186 17.585C99.9186 16.9295 100.174 15.9072 100.529 15.1849C100.861 14.5071 101.759 13.4626 102.436 12.996C103.656 12.1618 105.374 11.9065 106.783 12.3396ZM31.7296 10.9618V12.3508H36.8301V25.6846H39.9348V12.3508H45.0354V9.57279H31.7296V10.9618ZM115.996 17.6287V25.6846H127.196V23.018H118.99V9.57321H115.996V17.6287ZM89.6074 11.9065V13.5731H87.8335V16.0178H89.5962L89.6296 19.818L89.663 23.6294L89.9625 24.1851C90.6057 25.4074 91.5702 25.9631 93.045 25.9631C93.8985 25.9631 94.0652 25.9297 94.7413 25.5963C95.1625 25.3851 95.5284 25.152 95.5618 25.0629C95.5953 24.9738 95.5066 24.6405 95.3733 24.3183C95.2293 24.0073 95.0519 23.5848 94.9744 23.3848L94.8304 23.0403L94.4088 23.2515C93.9212 23.5073 93.4773 23.518 93.0561 23.3072C92.4794 22.9962 92.4464 22.7961 92.4018 19.2627L92.3684 16.0182H95.1518V13.5735H92.3796V10.2403H89.6074V11.9065ZM49.4144 13.3173C48.7271 13.373 47.6958 13.562 47.0861 13.7616C46.6092 13.906 45.2899 14.4394 45.1567 14.5393C45.101 14.5727 46.0436 16.6836 46.11 16.6836C46.1323 16.6836 46.3316 16.5949 46.5646 16.4724C48.3385 15.5722 50.5117 15.5504 51.5096 16.439C51.8314 16.7277 52.2415 17.6836 52.2415 18.1724C52.2415 18.5614 52.2192 18.5944 51.9977 18.528C50.4119 18.0837 48.5827 17.9612 47.4739 18.2281C46.11 18.5614 44.9459 19.4505 44.4026 20.5614C44.1365 21.0948 44.0919 21.3172 44.0919 22.1282C44.0919 22.917 44.1361 23.1727 44.3803 23.6838C44.957 24.8839 46.0547 25.6619 47.5403 25.9173C49.0039 26.1731 50.4453 25.8505 51.6206 25.006L52.2415 24.5617V25.6842H55.1242V21.6175C55.1242 17.295 55.0801 16.7838 54.5479 15.7505C54.2373 15.1395 53.2728 14.2059 52.6185 13.8726C51.7873 13.4617 50.468 13.2286 49.4144 13.3173ZM50.7448 20.24C51.1771 20.3069 51.687 20.4067 51.8867 20.4731C52.2415 20.5841 52.2415 20.5952 52.2415 21.3064C52.2415 22.1286 52.086 22.5065 51.5319 22.9842C50.2902 24.0844 47.9396 24.0399 47.1744 22.9066C46.7309 22.2623 46.8637 21.3176 47.4739 20.8176C48.2502 20.1843 49.1706 20.0177 50.7448 20.24ZM67.2659 13.3512C65.902 13.5067 64.6715 14.0958 63.7177 15.0624C62.8749 15.9068 62.3873 16.7513 62.1101 17.8622C61.1674 21.5622 63.2301 25.0514 66.8447 25.8624C68.763 26.2849 71.3685 25.6846 72.7658 24.4846L73.2204 24.0956L72.3557 23.2288L71.5018 22.3621L71.2134 22.5622C70.7588 22.8844 69.8607 23.3068 69.2951 23.4623C68.6186 23.6401 67.2659 23.5626 66.756 23.3068C65.8468 22.8736 65.0597 21.8844 64.8154 20.8733L64.749 20.5734H74.085L74.0409 20.1513C74.0075 19.929 73.9522 19.3956 73.9188 18.9847C73.7414 16.8734 72.4663 14.7179 70.9139 13.9287C69.9383 13.4287 68.5299 13.2064 67.2659 13.3512ZM69.1066 15.8511C70.0492 16.1844 70.7031 16.9291 71.0471 18.0734L71.1915 18.5734H67.987C66.2131 18.5734 64.7717 18.5511 64.7717 18.5289C64.7717 18.3288 65.1599 17.4732 65.426 17.0953C66.2127 15.9398 67.8203 15.3957 69.1066 15.8511ZM81.3806 13.3619C80.5713 13.484 79.6843 13.8953 79.03 14.4733L78.5202 14.9287V13.5731H75.5268V25.685H78.509L78.5424 21.7181C78.5759 17.8403 78.587 17.729 78.8197 17.2735C79.2854 16.4179 80.261 15.8734 81.3476 15.8734C82.3456 15.8622 83.0774 16.307 83.5431 17.1844C83.7758 17.618 83.7869 17.7735 83.8204 21.6513L83.8538 25.685H86.7258V21.429C86.7258 18.2512 86.6817 17.04 86.5707 16.6287C85.9597 14.2955 83.8752 12.9952 81.3806 13.3619Z" fill="#22282B"/>
<path d="M15.5616 23.2864C18.3194 23.2864 20.5549 21.0508 20.5549 18.2931C20.5549 15.5354 18.3194 13.2998 15.5616 13.2998C12.8039 13.2998 10.5684 15.5354 10.5684 18.2931C10.5684 21.0508 12.8039 23.2864 15.5616 23.2864Z" fill="#22282B"/>
</svg>
