<svg width="222" height="46" viewBox="0 0 222 46" fill="none" xmlns="http://www.w3.org/2000/svg">
<path d="M11.4408 0.22776V8.43517C9.93907 7.14803 8.9295 4.73527 8.9295 1.97423C8.9295 1.37273 8.97745 0.788886 9.06832 0.22776H11.4408Z" fill="#F0540B"/>
<path d="M2.80904 6.58866C4.76171 8.54124 7.18131 9.5331 9.15418 9.38335C9.30394 7.40973 8.31287 4.99109 6.3602 3.03766C4.40752 1.08508 1.98792 0.0932259 0.0150502 0.243813C-0.134703 2.21659 0.856359 4.63607 2.80988 6.58866H2.80904Z" fill="#F0540B"/>
<path d="M13.11 20.5216C13.11 21.1223 13.0621 21.7061 12.9721 22.2664H10.5987V14.0582C12.0996 15.3478 13.11 17.7581 13.11 20.5216Z" fill="#F0540B"/>
<path d="M19.2289 15.9056C17.2762 13.9531 14.8566 12.9612 12.8838 13.111C12.734 15.0846 13.7251 17.5032 15.6777 19.4566C17.6304 21.4092 20.05 22.4011 22.0237 22.2505C22.1735 20.2777 21.1824 17.8582 19.2289 15.9056Z" fill="#F0540B"/>
<path d="M22.038 9.29495V11.669H13.8294C15.1191 10.1673 17.5311 9.15698 20.2932 9.15698C20.8939 9.15698 21.4777 9.20494 22.038 9.29495Z" fill="#F0540B"/>
<path d="M15.6777 3.0376C13.725 4.99019 12.7331 7.40968 12.8828 9.38245C14.8566 9.5322 17.2753 8.54118 19.2288 6.5886C21.1815 4.63601 22.1734 2.21653 22.0228 0.242912C20.05 0.0931664 17.6304 1.08418 15.6777 3.0376Z" fill="#F0540B"/>
<path d="M10.5979 22.2656V14.0582C12.0996 15.3453 13.1092 17.7581 13.1092 20.5191C13.1092 21.1206 13.0612 21.7045 12.9704 22.2656H10.5979Z" fill="#F0540B"/>
<path d="M19.2289 15.9056C17.2762 13.9531 14.8566 12.9612 12.8838 13.111C12.734 15.0846 13.7251 17.5032 15.6777 19.4566C17.6304 21.4092 20.05 22.4011 22.0237 22.2505C22.1735 20.2777 21.1824 17.8582 19.2289 15.9056Z" fill="#F0540B"/>
<path d="M8.92795 1.97255C8.92795 1.37188 8.97591 0.788045 9.06593 0.22776H11.4393V8.43601C9.93836 7.14635 8.92795 4.73612 8.92795 1.97255Z" fill="#F0540B"/>
<path d="M2.80914 6.58776C4.76181 8.54034 7.18142 9.5322 9.15429 9.38245C9.30404 7.40883 8.31298 4.99019 6.3603 3.03676C4.40762 1.08418 1.98802 0.0931667 0.0151529 0.242912C-0.1346 2.21569 0.856462 4.63517 2.80998 6.58776H2.80914Z" fill="#F0540B"/>
<path d="M0 13.1993V10.8252H8.20865C6.91892 12.3269 4.50689 13.3373 1.74487 13.3373C1.14418 13.3373 0.560311 13.2893 0 13.1993Z" fill="#F0540B"/>
<path d="M6.3603 19.4558C8.31298 17.5032 9.30488 15.0837 9.15513 13.111C7.18142 12.9612 4.76266 13.9522 2.80914 15.9048C0.856462 17.8582 -0.1346 20.2769 0.0151531 22.2505C1.98802 22.4002 4.40762 21.4092 6.3603 19.4558Z" fill="#F0540B"/>
<path d="M210.948 0.234678C212.378 0.234678 213.708 0.491678 214.937 1.00568C216.189 1.51968 217.273 2.25715 218.189 3.21811C219.128 4.17907 219.865 5.34115 220.402 6.70437C220.938 8.04524 221.206 9.55371 221.206 11.2298C221.206 12.9059 220.938 14.4144 220.402 15.7552C219.865 17.0961 219.128 18.247 218.189 19.208C217.273 20.1466 216.189 20.8729 214.937 21.3869C213.708 21.9009 212.378 22.1579 210.948 22.1579H199.449V21.6551C200.142 21.6327 200.735 21.3981 201.226 20.9511C201.718 20.5041 201.964 19.8896 201.964 19.1074V3.3522C201.964 2.57002 201.718 1.95546 201.226 1.5085C200.735 1.0392 200.142 0.782198 199.449 0.737503V0.234678H210.948ZM215.507 7.71002C215.507 6.83846 215.362 6.03393 215.071 5.29646C214.803 4.55898 214.423 3.92207 213.932 3.38572C213.44 2.84937 212.87 2.42476 212.222 2.11189C211.596 1.79902 210.914 1.64259 210.177 1.64259H207.16V20.817H210.177C210.914 20.817 211.596 20.6718 212.222 20.3812C212.87 20.0907 213.44 19.6884 213.932 19.1744C214.423 18.6381 214.803 18.0124 215.071 17.2972C215.362 16.5598 215.507 15.7664 215.507 14.9172V7.71002Z" fill="black"/>
<path d="M195.345 20.8505C195.77 20.8505 196.15 20.6382 196.485 20.2136C196.843 19.7667 197.133 19.2415 197.357 18.6381C197.603 18.0347 197.793 17.4202 197.927 16.7944C198.061 16.1687 198.15 15.6659 198.195 15.2859H198.966V22.1579H182.137V21.6215C182.852 21.6215 183.478 21.4204 184.014 21.0182C184.551 20.6159 184.819 20.0125 184.819 19.208V3.31868C184.819 2.46947 184.551 1.84373 184.014 1.44147C183.478 1.01686 182.852 0.782207 182.137 0.737512V0.201164H192.764V0.737512C192.116 0.782207 191.535 1.02803 191.021 1.47499C190.529 1.92195 190.283 2.53651 190.283 3.31868L190.35 20.8505H195.345Z" fill="black"/>
<path d="M171.89 0C173.321 0 174.695 0.234652 176.014 0.703957C177.332 1.17326 178.495 1.86604 179.5 2.7823C180.506 3.69856 181.311 4.82713 181.914 6.168C182.517 7.48652 182.819 9.01734 182.819 10.7605C182.819 12.7047 182.45 14.392 181.713 15.8223C180.998 17.2302 180.048 18.4034 178.863 19.342C177.701 20.2583 176.383 20.9511 174.908 21.4204C173.433 21.8673 171.946 22.0908 170.449 22.0908C168.974 22.0908 167.577 21.845 166.259 21.3533C164.94 20.8617 163.778 20.1577 162.772 19.2415C161.789 18.3029 161.007 17.1631 160.425 15.8223C159.844 14.459 159.554 12.9059 159.554 11.1627C159.554 9.26317 159.923 7.6206 160.66 6.23504C161.398 4.82713 162.347 3.66504 163.51 2.74878C164.694 1.81017 166.013 1.11739 167.465 0.670434C168.94 0.223478 170.415 0 171.89 0ZM171.79 20.3142C172.796 20.3142 173.634 20.1019 174.304 19.6772C174.975 19.2526 175.511 18.6828 175.913 17.9676C176.316 17.2525 176.595 16.448 176.751 15.5541C176.908 14.6378 176.986 13.688 176.986 12.7047C176.986 11.5426 176.874 10.3135 176.651 9.01734C176.427 7.72117 176.047 6.53674 175.511 5.46404C174.997 4.39135 174.304 3.50861 173.433 2.81582C172.583 2.10069 171.522 1.74313 170.248 1.74313C169.22 1.74313 168.382 1.98895 167.734 2.48061C167.085 2.97226 166.571 3.60917 166.191 4.39135C165.834 5.17352 165.588 6.04508 165.454 7.00604C165.32 7.94465 165.253 8.88326 165.253 9.82186C165.253 10.9393 165.376 12.1125 165.622 13.3416C165.867 14.5708 166.247 15.6993 166.761 16.7273C167.275 17.7553 167.946 18.6157 168.773 19.3085C169.6 19.9789 170.605 20.3142 171.79 20.3142Z" fill="black"/>
<path d="M159.579 0.234678V0.737503C158.931 0.782198 158.372 1.0392 157.903 1.5085C157.433 1.95546 157.199 2.57002 157.199 3.3522V19.1074C157.199 19.8896 157.422 20.5041 157.869 20.9511C158.338 21.3757 158.908 21.6104 159.579 21.6551V22.1579H149.824V21.6551C150.494 21.6104 151.064 21.3757 151.533 20.9511C152.025 20.5041 152.271 19.8896 152.271 19.1074V12.0343H143.789V19.1074C143.789 19.8896 144.013 20.5041 144.46 20.9511C144.929 21.3757 145.51 21.6104 146.203 21.6551V22.1579H136.515V21.6551C137.208 21.6104 137.789 21.3757 138.258 20.9511C138.727 20.5041 138.962 19.8896 138.962 19.1074V3.3522C138.962 2.57002 138.727 1.95546 138.258 1.5085C137.811 1.0392 137.23 0.782198 136.515 0.737503V0.234678H146.203V0.737503C145.51 0.782198 144.929 1.0392 144.46 1.5085C144.013 1.95546 143.789 2.57002 143.789 3.3522V10.3918H152.271V3.3522C152.271 2.57002 152.025 1.95546 151.533 1.5085C151.064 1.0392 150.494 0.782198 149.824 0.737503V0.234678H159.579Z" fill="black"/>
<path d="M135.051 11.8667C135.207 12.0008 135.341 12.1684 135.453 12.3695C135.587 12.5483 135.732 12.7494 135.889 12.9729C136.068 13.3528 136.224 13.8221 136.358 14.3808C136.492 14.9172 136.492 15.5317 136.358 16.2245C136.179 17.2749 135.833 18.1799 135.319 18.9398C134.805 19.6996 134.168 20.3253 133.408 20.817C132.671 21.3086 131.832 21.6774 130.894 21.9232C129.955 22.1467 128.972 22.2584 127.944 22.2584C126.849 22.2584 125.776 22.1467 124.726 21.9232C124.48 21.8785 124.2 21.7891 123.887 21.655C123.575 21.5209 123.25 21.3757 122.915 21.2192C122.401 20.9958 121.876 20.7946 121.34 20.6159C120.803 20.4371 120.334 20.3477 119.932 20.3477C119.529 20.3477 119.183 20.4706 118.892 20.7164C118.602 20.9622 118.434 21.4316 118.39 22.1243H117.451V13.945H117.987L118.054 14.0791C118.323 14.973 118.781 15.8781 119.429 16.7944C120.099 17.6883 120.881 18.4593 121.775 19.1074C122.625 19.6884 123.53 20.113 124.491 20.3812C125.452 20.6494 126.323 20.8393 127.106 20.9511C127.731 21.0181 128.324 20.9846 128.882 20.8505C129.463 20.7164 129.966 20.5153 130.391 20.2471C130.838 19.9566 131.184 19.6102 131.43 19.2079C131.676 18.7833 131.799 18.3029 131.799 17.7665C131.799 17.5654 131.754 17.3531 131.665 17.1296C131.598 16.8838 131.508 16.6715 131.397 16.4927H131.363C131.184 16.3139 130.961 16.1128 130.693 15.8893C130.424 15.6435 130.156 15.4312 129.888 15.2524C129.508 15.0513 129.005 14.8166 128.38 14.5484C127.754 14.2579 127.016 13.9562 126.167 13.6433C124.96 13.174 123.91 12.7494 123.016 12.3695C122.122 11.9673 121.418 11.6097 120.904 11.2968C120.39 10.9839 119.92 10.6487 119.496 10.2912C119.071 9.91125 118.702 9.48665 118.39 9.01734C117.764 8.12343 117.451 7.20717 117.451 6.26856C117.451 5.397 117.663 4.60365 118.088 3.88852C118.535 3.15104 119.149 2.49178 119.932 1.91074C120.714 1.3297 121.608 0.871565 122.614 0.536349C123.619 0.178783 124.737 0 125.966 0H126.938C127.206 0 127.474 0 127.743 0C128.011 0 128.268 0.0223482 128.514 0.0670445C129.005 0.134087 129.475 0.234652 129.922 0.36874C130.391 0.502827 130.827 0.636913 131.229 0.770999L131.564 0.871565C131.967 1.028 132.358 1.16209 132.738 1.27382C133.118 1.38556 133.442 1.44143 133.71 1.44143C134.023 1.44143 134.268 1.35204 134.447 1.17326C134.626 0.972131 134.715 0.614566 134.715 0.100566H135.252L135.486 7.44182H134.95L134.917 7.30773C134.671 6.48087 134.347 5.70987 133.944 4.99474C133.564 4.25726 132.95 3.57565 132.101 2.94991C131.676 2.61469 131.196 2.33535 130.659 2.11187C130.145 1.88839 129.62 1.70961 129.084 1.57552C128.57 1.44143 128.067 1.35204 127.575 1.30735C127.083 1.2403 126.659 1.20678 126.301 1.20678C125.608 1.20678 124.994 1.31852 124.457 1.542C123.921 1.76548 123.496 2.00013 123.183 2.24596C122.759 2.58117 122.479 2.93874 122.345 3.31865C122.211 3.69856 122.144 3.98908 122.144 4.19021C122.144 4.369 122.178 4.55895 122.245 4.76008C122.312 4.96121 122.39 5.14 122.479 5.29643H122.513C122.736 5.51991 123.005 5.76574 123.318 6.03391C123.63 6.27974 123.943 6.49204 124.256 6.67082C124.591 6.8496 125.117 7.09543 125.832 7.4083C126.569 7.72117 127.486 8.06756 128.581 8.44747C130.1 9.02852 131.43 9.62073 132.57 10.2241C133.71 10.8052 134.537 11.3527 135.051 11.8667Z" fill="black"/>
<path d="M116.104 0.201164V6.20155L115.635 6.16803C115.59 5.94455 115.501 5.58699 115.367 5.09534C115.233 4.58134 115.054 4.06734 114.83 3.55334C114.629 3.03934 114.395 2.59238 114.126 2.21247C113.858 1.81021 113.59 1.60908 113.322 1.60908H104.941C104.941 2.01134 104.93 2.4136 104.908 2.81586C104.908 3.21812 104.908 3.53099 104.908 3.75447V10.2912H110.037C110.305 10.2912 110.562 10.1906 110.808 9.98951C111.054 9.78838 111.266 9.54255 111.445 9.25203C111.623 8.93916 111.769 8.61512 111.88 8.2799C111.992 7.94468 112.048 7.65416 112.048 7.40833V6.77142L112.517 6.83846V15.0178H112.082C112.059 14.7049 112.003 14.3697 111.914 14.0121C111.847 13.6322 111.735 13.2858 111.579 12.9729C111.422 12.6601 111.221 12.4031 110.975 12.2019C110.729 12.0008 110.439 11.9002 110.104 11.9002H104.908L104.74 20.817L111.847 20.75C112.294 20.6606 112.741 20.5935 113.188 20.5488C113.657 20.4818 114.071 20.303 114.428 20.0125C114.808 19.722 115.11 19.2638 115.333 18.6381C115.579 17.99 115.724 17.0514 115.769 15.8223H116.205V22.1579H96.6944V21.6551C97.0519 21.6327 97.3983 21.5657 97.7336 21.4539C98.0912 21.3422 98.4041 21.1858 98.6722 20.9846C98.9628 20.7612 99.1863 20.493 99.3427 20.1801C99.5215 19.8672 99.6109 19.4985 99.6109 19.0739V3.31868C99.6109 2.42477 99.3092 1.78786 98.7058 1.40795C98.1023 1.00568 97.4319 0.782207 96.6944 0.737512V0.201164H116.104Z" fill="black"/>
<path d="M89.3481 15.0848C89.3928 15.0848 89.4151 15.0848 89.4151 15.0848C89.4375 15.0625 89.471 15.0513 89.5157 15.0513L96.9579 22.1244L89.985 22.1579L80.9672 14.0456H80.9002V19.1074C80.9002 19.7108 81.0119 20.1913 81.2354 20.5488C81.4589 20.8841 81.7159 21.1411 82.0065 21.3198C82.297 21.4763 82.5764 21.5768 82.8446 21.6215C83.1127 21.6439 83.2804 21.6551 83.3474 21.6551V22.1579H73.4245V21.6551C73.4915 21.6551 73.6592 21.6439 73.9274 21.6215C74.1955 21.5768 74.4749 21.4763 74.7654 21.3198C75.056 21.1411 75.313 20.8841 75.5365 20.5488C75.7823 20.1913 75.9052 19.7108 75.9052 19.1074V3.28516C75.9052 2.68177 75.7823 2.21247 75.5365 1.87725C75.313 1.51969 75.056 1.26269 74.7654 1.10625C74.4749 0.927469 74.1955 0.81573 73.9274 0.771033C73.6592 0.726338 73.4915 0.703991 73.4245 0.703991V0.201164H87.5043C88.6441 0.201164 89.6386 0.402294 90.4879 0.804555C91.3595 1.18447 92.0746 1.69847 92.6334 2.34655C93.2144 2.99464 93.6502 3.73212 93.9408 4.55899C94.2313 5.36351 94.3766 6.20155 94.3766 7.07312C94.3766 7.92233 94.1531 8.77155 93.7061 9.62077C93.2815 10.47 92.6445 11.241 91.7953 11.9338C90.9684 12.6042 89.9515 13.1517 88.7447 13.5763C87.5378 13.9786 86.1745 14.1574 84.6548 14.1127L89.3481 15.0848ZM80.9002 12.3025H84.923C85.6605 12.3025 86.2975 12.1684 86.8338 11.9002C87.3926 11.6097 87.8507 11.2298 88.2083 10.7605C88.5882 10.2689 88.8676 9.71016 89.0464 9.08442C89.2252 8.45868 89.3146 7.78825 89.3146 7.07312C89.3146 6.38033 89.2252 5.72107 89.0464 5.09534C88.8676 4.44725 88.5882 3.88855 88.2083 3.41925C87.8507 2.9276 87.3926 2.53651 86.8338 2.24599C86.2975 1.95547 85.6605 1.81021 84.923 1.81021H80.9002V12.3025Z" fill="black"/>
<path d="M72.8586 0.234678V0.737503C72.2104 0.782198 71.6517 1.0392 71.1824 1.5085C70.7131 1.95546 70.4784 2.57002 70.4784 3.3522V19.1074C70.4784 19.8896 70.7019 20.5041 71.1489 20.9511C71.6182 21.3757 72.1881 21.6104 72.8586 21.6551V22.1579H63.1033V21.6551C63.7737 21.6104 64.3436 21.3757 64.813 20.9511C65.3046 20.5041 65.5505 19.8896 65.5505 19.1074V12.0343H57.0691V19.1074C57.0691 19.8896 57.2926 20.5041 57.7395 20.9511C58.2089 21.3757 58.7899 21.6104 59.4827 21.6551V22.1579H49.7945V21.6551C50.4873 21.6104 51.0684 21.3757 51.5377 20.9511C52.007 20.5041 52.2417 19.8896 52.2417 19.1074V3.3522C52.2417 2.57002 52.007 1.95546 51.5377 1.5085C51.0907 1.0392 50.5097 0.782198 49.7945 0.737503V0.234678H59.4827V0.737503C58.7899 0.782198 58.2089 1.0392 57.7395 1.5085C57.2926 1.95546 57.0691 2.57002 57.0691 3.3522V10.3918H65.5505V3.3522C65.5505 2.57002 65.3046 1.95546 64.813 1.5085C64.3436 1.0392 63.7737 0.782198 63.1033 0.737503V0.234678H72.8586Z" fill="black"/>
<path d="M49.2405 0.234678V7.14015H48.5365C48.4248 6.06746 48.2683 5.17354 48.0672 4.45841C47.866 3.72094 47.5643 3.12872 47.162 2.68176C46.7598 2.23481 46.2457 1.92194 45.62 1.74315C44.9942 1.56437 43.877 1.48616 42.916 1.5085H42.8155C42.8378 1.75433 42.849 2.04485 42.849 2.38007C42.849 2.69294 42.849 2.97228 42.849 3.21811V19.0739C42.849 19.8561 43.0837 20.4706 43.553 20.9176C44.0447 21.3645 44.6257 21.6104 45.2962 21.6551V22.1579H34.8034V21.6551C35.4962 21.6104 36.0773 21.3645 36.5466 20.9176C37.0159 20.4706 37.2506 19.8561 37.2506 19.0739V8.54806L37.15 1.5085H37.1165C36.1555 1.48616 35.0383 1.56437 34.4126 1.74315C33.7868 1.92194 33.284 2.23481 32.904 2.68176C32.5241 3.10637 32.2336 3.68741 32.0324 4.42489C31.8313 5.14002 31.6748 6.04511 31.5631 7.14015H30.7585V0.234678H49.2405Z" fill="black"/>
<path d="M131.107 37.5676C131.107 40.619 132.36 41.5817 133.722 41.5817C135.321 41.5817 136.411 40.1105 136.411 37.5676C136.411 35.0248 135.321 33.5536 133.795 33.5536C132.56 33.5536 131.107 34.5344 131.107 37.5676ZM131.198 32.6454L131.18 34.4436H131.216C131.797 33.3719 132.814 32.482 134.358 32.482C136.629 32.482 138.318 34.5162 138.318 37.5676C138.318 40.6372 136.411 42.6533 134.049 42.6533C132.669 42.6533 131.724 41.8178 131.234 40.8915H131.198C131.198 41.0913 131.234 41.9813 131.234 42.2174V44.6331C131.234 45.0508 131.379 45.0872 131.797 45.1416L132.978 45.2143V45.85H128.146V45.2143L128.927 45.1416C129.345 45.0872 129.454 45.0327 129.454 44.6512V33.8805C129.454 33.5172 129.363 33.4264 128.927 33.3538L128.146 33.263V32.6454H131.198Z" fill="black"/>
<path d="M124.945 42.5443L124.909 40.7643H124.873C124.31 41.9268 123.365 42.6533 121.839 42.6533C119.569 42.6533 119.079 40.9096 119.079 39.3113V33.8805C119.079 33.5172 119.006 33.4264 118.552 33.3538L117.771 33.263V32.6454H120.877L120.859 34.716V38.7845C120.859 40.6735 121.276 41.5272 122.639 41.5272C123.656 41.5272 124.891 40.6735 124.891 38.4939V33.8805C124.891 33.5172 124.8 33.4264 124.364 33.3538L123.583 33.263V32.6454H126.689L126.671 34.716V41.1094C126.671 41.5272 126.798 41.5453 127.216 41.5998L127.961 41.6906V42.29L124.945 42.5443Z" fill="black"/>
<path d="M110.209 37.5676C110.209 40.4374 111.39 41.727 112.952 41.727C114.496 41.727 115.694 40.4374 115.694 37.5676C115.694 34.6979 114.496 33.4083 112.952 33.4083C111.39 33.4083 110.209 34.6979 110.209 37.5676ZM117.602 37.5676C117.602 40.6372 115.622 42.6533 112.952 42.6533C110.282 42.6533 108.302 40.6372 108.302 37.5676C108.302 34.4981 110.282 32.482 112.952 32.482C115.622 32.482 117.602 34.4981 117.602 37.5676Z" fill="black"/>
<path d="M104.447 32.6454L104.465 34.6797H104.501C104.992 33.4264 106.009 32.5546 107.444 32.5546H108.37V34.2256H106.826C105.283 34.2256 104.483 34.8613 104.483 36.8411V41.2002C104.483 41.5817 104.61 41.6725 105.028 41.6907L106.554 41.7633V42.4172H101.395V41.7815L102.176 41.7088C102.594 41.6543 102.703 41.5998 102.703 41.2184V33.8805C102.703 33.5172 102.612 33.4264 102.176 33.3538L101.395 33.263V32.6454H104.447Z" fill="black"/>
<path d="M94.2216 29.921C91.6242 29.921 89.8986 31.9915 89.8986 35.7695C89.8986 39.5474 91.4789 41.618 94.149 41.618C95.7474 41.618 98.1087 40.9641 98.1087 37.7129V36.8229H95.6566V35.9148H99.9433C99.9433 36.6595 99.9251 41.6543 99.9251 42.4172H98.8535L98.472 40.5645C97.7273 41.7815 96.3287 42.6533 94.0945 42.6533C90.1711 42.6533 87.8279 39.8925 87.8279 35.7695C87.8279 31.6101 90.3527 28.9402 94.1853 28.9402C97.0371 28.9402 99.4347 30.4477 99.9615 33.263L98.0361 33.2811C97.7455 31.1016 96.4558 29.921 94.2216 29.921Z" fill="black"/>
<path d="M80.7453 40.6554H80.7089C80.0732 41.836 79.2195 42.6533 77.3486 42.6533C75.623 42.6533 74.2789 41.5998 74.2789 40.0015C74.2789 37.6948 77.0035 37.0591 80.5455 36.6231V35.7695C80.5455 34.0803 79.8552 33.3719 78.4748 33.3719C76.9308 33.3719 76.3859 34.3891 76.2951 35.6968H74.5695C74.7148 33.7897 76.2769 32.482 78.5293 32.482C80.9269 32.482 82.38 33.3538 82.3255 36.2054C82.3074 36.8593 82.2892 37.6584 82.2892 38.6029C82.2892 39.5292 82.271 40.2013 82.3255 41.1276C82.3437 41.509 82.4345 41.5453 82.8523 41.5998L83.6152 41.6907V42.3264L80.8361 42.4898L80.7453 40.6554ZM80.6181 38.1125V37.5313C78.1841 37.8219 76.2043 38.058 76.2043 39.947C76.2043 40.9096 76.84 41.5817 77.9843 41.5817C79.4375 41.5817 80.6181 40.7643 80.6181 38.1125Z" fill="black"/>
<path d="M72.391 32.6454L72.3728 34.6797V41.2184C72.3728 41.5998 72.4999 41.6543 72.9177 41.7088L73.6624 41.7815V42.4172H69.2849V41.7815L70.066 41.7088C70.4837 41.6543 70.5927 41.5998 70.5927 41.2184V33.8805C70.5927 33.5172 70.5019 33.4264 70.066 33.3538L69.2849 33.263V32.6454H72.391ZM70.5927 31.156V28.8857H72.3728V31.156H70.5927Z" fill="black"/>
<path d="M65.6269 37.5676C65.6269 34.5162 64.3554 33.5536 62.9931 33.5536C61.3947 33.5536 60.3048 35.0248 60.3048 37.5676C60.3048 40.1105 61.3583 41.5817 62.9023 41.5817C64.1374 41.5817 65.6269 40.6009 65.6269 37.5676ZM63.9558 28.8857H67.2616L67.2435 30.9562V41.1094C67.2435 41.5272 67.3706 41.5453 67.7884 41.5998L68.5331 41.6906V42.29L65.5905 42.4898L65.536 40.6917H65.4997C64.9185 41.7633 63.9013 42.6533 62.3573 42.6533C60.0687 42.6533 58.3794 40.619 58.3794 37.5858C58.3794 34.4799 60.2866 32.4819 62.6661 32.4819C64.0466 32.4819 64.973 33.3175 65.4634 34.2438H65.4997C65.4816 33.3538 65.4634 33.0268 65.4634 32.6817V30.1026C65.4634 29.6848 65.3362 29.6667 64.9185 29.6122L63.9558 29.5214V28.8857Z" fill="black"/>
<path d="M53.1959 41.7088C54.5582 41.7088 55.4846 40.9823 55.648 39.5111H57.4099C57.0285 41.618 55.085 42.6533 53.0869 42.6533C50.0899 42.6533 48.4006 40.4374 48.4006 37.604C48.4006 34.6252 50.2897 32.482 53.0688 32.482C55.3574 32.482 57.4826 34.0258 57.4826 37.6403H50.2715C50.326 40.0378 51.1615 41.7088 53.1959 41.7088ZM53.0143 33.3901C51.5611 33.3901 50.435 34.4254 50.2897 36.6595H55.5935C55.5935 34.3346 54.4311 33.3901 53.0143 33.3901Z" fill="black"/>
<path d="M46.0803 30.484V41.2002C46.0803 41.5453 46.1893 41.6725 46.607 41.6906L47.5879 41.7633V42.4172H42.6655V41.7633L43.6282 41.6906C44.0459 41.6725 44.1731 41.5453 44.1731 41.2002V30.8836L39.5049 42.4172H38.6149L33.9286 30.9199V40.9096C33.9286 41.5453 34.0376 41.6725 34.6915 41.727L35.4544 41.7633V42.4172H31.2948V41.7633L32.0577 41.727C32.7116 41.6725 32.8024 41.5453 32.8024 40.9096V30.484C32.8024 30.1752 32.6208 29.9936 32.2393 29.9573L31.2585 29.8846V29.2489H35.3454L39.4868 39.6745L43.719 29.2489H47.5879V29.8846L46.5889 29.9573C46.1711 30.0118 46.0803 30.1752 46.0803 30.484Z" fill="black"/>
</svg>
